<svg width="351" height="128" viewBox="0 0 351 128" fill="none" xmlns="http://www.w3.org/2000/svg">
<path d="M252.32 86.808C247.648 89.56 245.408 87 247.52 82.136C251.744 72.472 258.72 60.312 265.888 51.16C266.976 49.88 268.384 50.2 269.984 52.12C271.2 53.784 270.752 54.168 269.216 56.024C266.848 58.84 264.416 62.104 261.344 66.904C258.912 70.744 254.048 78.168 252.832 81.944C256.224 80.28 258.592 79.832 260.192 79.704C264.224 79.384 268.128 79.576 270.944 82.456C273.504 85.016 268.896 87.32 265.632 85.336C264.8 84.824 263.648 84.184 260.256 84.376C258.592 84.504 256.032 84.696 252.32 86.808ZM274.656 75.672C275.936 73.24 278.176 70.872 280.864 69.144C283.488 67.608 286.304 67.16 288.864 67.864C292.768 69.016 294.112 73.88 291.808 78.616C290.656 80.92 288.928 83.224 286.816 84.76C283.04 87.448 278.688 88.344 275.616 86.424C272.928 84.632 272.48 79.896 274.656 75.672ZM279.392 82.52C281.632 83.672 285.408 81.048 287.008 77.4C287.84 75.544 288.416 72.6 286.112 72.088C283.744 71.512 280.544 73.56 279.008 77.656C278.56 78.808 277.856 81.688 279.392 82.52ZM312.972 55.704L310.988 58.072C309.772 59.608 308.556 61.144 307.468 62.68C308.428 62.552 309.644 62.424 311.5 62.296C312.46 62.168 313.164 62.68 312.332 64.6C312.076 65.176 311.052 66.968 308.812 66.84C306.572 66.84 305.548 66.84 304.652 66.904C301.964 71.064 300.236 74.584 299.724 75.864C298.316 79.384 297.548 81.176 298.956 82.328C300.812 83.864 307.276 78.872 310.092 75.864C311.884 74.52 313.1 76.952 310.988 79.384C310.412 80.024 309.388 81.368 307.852 82.584C300.236 88.6 295.692 88.216 293.836 85.144C291.084 80.536 294.988 74.072 298.828 67.416C298.572 67.416 298.188 67.48 297.804 67.544C296.844 67.672 296.268 66.392 296.524 65.304C296.716 64.536 297.036 63.832 297.74 63.704L301.324 63.128C304.588 57.816 308.94 52.12 310.924 52.312C312.012 52.504 314.636 53.72 312.972 55.704ZM328.503 80.856C330.808 79.256 332.408 81.56 330.552 83.416L329.912 84.12C327.416 86.424 324.792 87.448 322.552 87.256C320.568 87.064 319.288 85.656 319.032 83.672C316.984 86.232 313.784 87.256 311.544 87.32C310.456 87.32 309.175 87.128 307.767 86.04C305.464 84.248 305.911 80.856 306.551 79.128C307.319 76.952 310.584 70.616 311.608 68.696C312.12 67.608 313.4 67.288 315.192 68.696C317.176 70.232 316.024 71.768 314.744 73.624C311.799 77.912 310.904 80.984 311.736 82.2C312.632 83.608 315.512 81.944 317.176 80.408C319.608 78.168 321.4 73.816 322.36 71.896C323.128 70.104 323 68.888 323.832 68.632C325.88 67.8 328.824 71.128 327.992 72.408C328.056 72.6 325.176 76.76 324.024 80.344C323.256 82.712 325.176 82.776 326.456 82.136C326.776 82.008 327.864 81.368 328.503 80.856ZM347.442 70.168C348.274 71.64 348.21 73.496 347.25 74.456C346.162 75.48 344.882 75.864 343.794 75.8C342.514 75.736 341.49 75.16 341.426 74.2C341.362 73.176 342.386 72.728 343.73 72.472C344.498 72.344 343.922 71.256 342.642 71.064C341.17 70.872 340.338 71.128 339.954 71.32C338.354 72.088 338.034 73.368 338.226 74.136C338.354 74.584 338.546 75.352 340.274 76.632C342.898 78.552 344.114 79.768 344.498 80.92C345.394 83.736 342.514 86.936 337.586 87.32C334.194 87.576 329.65 86.296 328.562 82.2C328.05 80.344 328.562 78.808 329.586 77.784C330.29 77.08 331.058 76.888 331.57 76.888C332.466 76.888 333.17 77.528 333.234 78.488C333.298 78.808 333.234 79.256 333.17 79.512C331.826 81.688 334.514 83.288 336.946 82.968C338.29 82.776 339.058 82.264 338.866 81.176C338.802 80.728 338.674 80.28 337.138 79.192C335.218 77.848 333.298 76.184 332.914 74.584C332.338 71.256 335.602 68.632 337.842 67.864C342.578 66.52 346.034 67.992 347.442 70.168Z" fill="white"/>
<path d="M0.616 80.344C0.424 78.616 1.256 77.592 3.048 77.272C4.712 77.208 5.608 77.912 5.736 79.32C5.992 83.928 14.504 84.76 20.072 82.136C24.36 79.896 27.112 77.016 27.304 72.856C27.304 70.936 26.728 69.912 25.512 69.4C25.64 69.464 23.144 68.568 22.696 68.376C21.608 67.928 21.288 66.392 22.632 65.752L23.208 65.56C29.48 63.448 31.976 60.632 31.976 58.072C32.04 57.112 31.848 54.808 28.264 54.04C27.944 54.04 27.24 54.04 26.856 54.616C25.896 56.216 25 57.624 24.04 59.032C22.312 61.72 20.648 64.536 18.408 68.504C15.336 73.688 14.504 75.48 13.8 76.952C13.416 77.72 13.224 78.232 12.84 78.808C11.88 80.28 7.016 77.912 8.104 75.736C8.872 74.392 9.256 74.072 9.896 73.112C10.664 71.832 11.816 70.104 13.672 67.032C16.424 62.744 19.944 56.728 19.944 56.6C20.776 55.128 20.264 55.064 19.368 55.384C17.256 56.216 16.424 56.856 15.272 57.816C14.952 58.2 14.44 58.648 13.864 59.16C11.944 60.504 9.704 57.496 12.584 54.872C15.72 52.056 18.728 50.712 23.72 50.136C31.272 49.24 36.968 52.184 36.648 58.392C36.52 60.888 34.344 64.024 31.4 65.816C30.44 66.392 30.184 66.584 29.8 66.776C31.208 67.416 32.744 68.568 32.872 71.96C33.064 77.72 29.096 83.16 22.184 86.36C14.12 90.136 1 88.088 0.616 80.344ZM52.5105 74.84C54.3025 73.496 56.7345 73.624 54.8785 76.44C54.1745 77.528 52.0625 80.28 50.5905 81.688C43.3585 88.6 36.8305 88.536 34.3985 85.016C31.6465 80.984 35.0385 73.432 39.2625 66.2C42.7185 60.312 50.4625 49.432 54.2385 49.944C57.7585 50.52 60.3825 60.504 56.9905 63C53.6625 65.496 41.0545 73.624 40.1585 75.8C38.3665 79 38.1105 81.048 39.3265 82.008C40.9905 83.352 45.3425 81.304 47.8385 79.384C49.6945 77.976 51.2945 76.312 52.5105 74.84ZM53.6625 55.128C48.4785 59.992 43.2945 68.312 43.2945 68.632C43.2945 69.016 53.6625 61.848 54.1745 60.312C54.9425 58.2 54.0465 56.6 53.6625 55.128ZM68.85 81.304C72.434 78.936 72.562 83.16 69.682 85.08C68.274 86.104 67.378 86.616 65.906 87.064C64.114 87.576 62.322 87.256 61.234 86.488C60.53 85.976 60.146 85.208 60.082 84.632C59.058 85.976 56.498 87.96 52.786 87.256C48.114 86.36 48.242 80.664 49.266 77.976C52.21 70.424 57.586 68.376 59.506 67.864C62.962 66.968 65.586 68.248 66.226 68.824C68.594 70.936 66.61 74.904 63.922 73.56C62.322 72.728 62.194 71.256 59.122 72.6C58.098 73.048 55.346 75.224 54.45 77.976C53.938 79.512 53.362 82.264 55.41 82.84C56.498 83.16 58.162 82.84 60.658 79.832C61.874 78.36 62.258 76.376 62.642 75.864C64.114 73.496 68.402 75.928 67.634 77.464C67.57 77.656 67.058 78.232 66.162 79.576C65.33 80.728 64.882 82.392 65.65 82.648C66.226 82.84 67.57 82.136 68.85 81.304ZM87.769 69.912C88.857 73.304 84.377 75.992 84.377 73.688C84.249 72.408 83.481 72.216 82.265 72.216C80.025 72.216 77.785 73.944 76.313 76.44C74.905 78.808 74.841 81.176 76.185 82.328C77.145 83.16 80.345 83.416 83.033 82.008C85.849 80.536 87.257 78.808 87.897 78.68C88.857 78.488 90.137 79.96 89.753 80.92C89.369 81.88 86.041 84.824 83.033 86.168C79.641 87.704 74.329 88.088 72.153 86.296C69.913 84.504 68.697 81.304 71.641 75.544C76.569 67.288 83.289 67.032 85.593 67.864C86.873 68.312 87.449 69.016 87.769 69.912ZM86.233 85.912C84.889 82.904 89.049 73.24 93.273 66.008C96.729 60.12 104.793 49.368 108.121 49.88C111.641 50.456 114.009 60.312 110.617 62.808C106.969 65.368 103.961 67.416 101.529 69.08C103.513 68.248 105.753 67.736 107.417 69.528C109.209 71.448 108.377 74.264 107.545 75.544C105.881 78.104 101.465 80.344 98.649 79.96C97.881 82.136 98.649 83.352 101.145 83.16C103.449 82.968 106.841 80.408 109.145 78.04C110.041 77.08 113.049 78.552 111.065 80.664C110.361 81.432 108.185 83.544 106.329 84.952C104.601 86.296 99.929 88.664 96.153 86.808C93.529 85.528 93.337 82.456 94.169 79.896C95.257 77.016 104.537 76.76 103.193 73.112C101.977 69.72 96.089 73.176 92.633 78.168C91.417 81.112 90.329 84.76 89.945 86.744C88.793 88.408 86.617 86.616 86.233 85.912ZM96.921 68.44C96.921 68.824 107.289 61.656 107.801 60.12C108.569 58.008 107.673 56.408 107.289 54.936C102.105 59.8 96.921 68.12 96.921 68.44Z" fill="white"/>
<path d="M180.242 32.6982C178.238 32.5786 176.107 32.2796 173.847 31.8012C170.158 31.0158 167.35 29.5758 167.661 25.2461C168.267 16.8145 172.136 9.61939 178.08 3.88363C179.442 2.56969 181.401 3.14666 182.701 4.21818C188.021 8.60444 191.45 13.802 192.989 19.8109C193.736 22.72 190.885 24.5964 188.398 23.1224C187.908 22.8315 187.481 21.9491 187.331 21.4109C186.158 17.1313 183.885 13.4077 180.514 10.24C180.498 10.2243 180.478 10.2121 180.457 10.204C180.436 10.196 180.414 10.1923 180.391 10.1932C180.369 10.1941 180.347 10.1996 180.328 10.2093C180.308 10.219 180.29 10.2328 180.276 10.2497C176.587 14.4388 174.027 19.457 173.639 24.9745C173.597 25.5628 173.868 25.8974 174.453 25.9782C178.232 26.5018 181.962 27.0061 185.644 27.4909C188.044 27.8109 191.481 29.0036 191.714 31.6897C192.048 35.583 188.732 37.0182 185.542 37.8861C183.745 38.3774 182.099 38.7297 180.606 38.943C180.183 39.0044 180.183 39.0691 180.606 39.137C181.931 39.3438 183.211 39.6121 184.446 39.9418C187.859 40.8485 188.194 44.0824 186.468 46.6521C185.527 48.0452 184.305 49.4707 182.802 50.9285C182.221 51.4941 181.663 51.9289 181.13 52.2327C179.573 53.1248 177.508 52.4073 176.916 50.6764C176.068 48.1988 178.376 46.8945 179.83 45.3721C180.018 45.1782 179.977 45.0634 179.709 45.0279C177.488 44.7467 175.132 44.3491 173.125 43.2194C170.41 41.6921 169.886 38.1188 172.228 35.9951C174.119 34.2739 177.585 33.6582 180.271 33.0812C181.209 32.8808 181.199 32.7531 180.242 32.6982Z" fill="white"/>
<path d="M163.244 45.9151C165.411 43.9176 169.876 41.0764 171.952 45.1151C173.198 47.5539 173.144 51.2436 172.926 53.9733C172.63 57.7212 167.292 57.9636 167.064 54.1285C166.996 52.9616 167.017 51.7673 167.127 50.5454C167.147 50.3063 167.067 50.2675 166.89 50.4291C165.425 51.7931 163.743 52.876 161.842 53.6776C159.981 54.4663 158.31 54.3531 156.829 53.3382C153.993 51.3939 155.04 48 156.451 45.4012C157.356 43.7301 158.287 42.3208 159.244 41.1733C159.247 41.1669 159.247 41.162 159.244 41.1588L159.166 41.057C159.134 41.0149 159.098 41.0117 159.059 41.0473C156.215 43.4941 153.739 45.2768 151.632 46.3951C149.246 47.6606 146.72 47.7721 144.727 45.7067C138.933 39.6945 136.417 31.2485 136.465 22.9576C136.478 21.1442 137.367 20.1067 139.132 19.8448C145.648 18.8751 152.742 20.0485 158.521 23.5345C159.194 23.9418 159.611 24.522 159.772 25.2751C160.378 28.063 157.644 29.9345 155.219 28.4703C151.858 26.4436 147.906 25.4416 143.365 25.4642C143.155 25.4675 142.945 25.4481 142.735 25.4061C142.56 25.3705 142.479 25.4416 142.492 25.6194C142.806 30.2158 143.994 34.2578 146.056 37.7454C146.786 38.9867 147.63 40.0889 148.587 41.0521C148.716 41.1814 148.86 41.1992 149.018 41.1054C150.44 40.2586 151.628 39.4376 152.582 38.6424C155.342 36.341 157.653 34.5648 159.515 33.3139C161.125 32.2279 163.404 31.4958 165.479 32.4897C167.355 33.3915 167.855 36.0097 167.345 37.8424C166.507 40.8388 164.752 43.2194 163.122 45.8133C162.906 46.156 162.946 46.1899 163.244 45.9151Z" fill="white"/>
<path d="M197.615 46.7539C199.583 48.9745 202.463 53.4012 198.39 55.4715C195.947 56.7127 192.441 56.6303 189.682 56.4606C185.518 56.2085 185.498 50.3661 190.138 50.5309C191.056 50.5632 191.981 50.5907 192.912 50.6133C193.131 50.6198 193.168 50.539 193.023 50.3709C191.701 48.8614 190.662 47.2517 189.905 45.5418C189.088 43.6832 189.135 42.0154 190.046 40.5382C192.916 35.8982 199.564 40.6158 202.366 42.6909C202.379 42.7006 202.396 42.7052 202.413 42.7039C202.43 42.7027 202.446 42.6955 202.457 42.684C202.469 42.6724 202.476 42.6572 202.476 42.6415C202.476 42.6257 202.47 42.6105 202.458 42.5988C201.175 41.0279 199.99 39.5119 198.904 38.0509C197.825 36.5964 197.025 35.1143 196.504 33.6049C195.806 31.5782 196.296 29.6485 197.876 28.1552C204.034 22.3515 212.427 19.8982 220.79 19.9855C222.715 20.0049 223.598 21.4691 223.782 23.1806C224.485 29.7358 223.36 37.4158 219.462 42.6909C219.376 42.8088 219.263 42.9037 219.132 42.9673C217.149 43.8982 214.982 43.2 214.57 40.8776C214.447 40.1923 214.576 39.5345 214.958 38.9042C217.139 35.3164 218.167 31.0836 218.041 26.2061C218.038 26.0348 217.951 25.9588 217.779 25.9782C211.884 26.6521 206.967 28.0582 202.487 32.0194C202.313 32.1713 202.285 32.3459 202.405 32.543C203.013 33.5289 203.62 34.4129 204.228 35.1952C205.818 37.2541 207.412 39.3034 209.008 41.343C210.604 43.3842 212.242 46.143 211.147 48.7564C210.288 50.8073 207.612 51.4279 205.648 50.8558C202.715 49.9976 200.286 48.3152 197.716 46.6376C197.39 46.4242 197.356 46.463 197.615 46.7539Z" fill="white"/>
<path d="M149.484 63.0012C149.364 62.5099 149.283 62.5164 149.241 63.0206C149.018 65.7325 148.606 68.341 148.005 70.8461C147.239 74.0509 145.387 76.0921 141.804 75.8594C133.411 75.3067 126.4 71.4909 120.485 65.5855C118.856 63.9515 119.796 61.8473 121.052 60.3782C125.4 55.2937 130.51 52 136.383 50.497C137.775 50.1382 139.472 50.817 139.937 52.2521C140.485 53.9491 139.811 55.6509 138.022 56.1358C133.794 57.2768 130.044 59.5442 126.773 62.9382C126.638 63.0772 126.644 63.2097 126.793 63.3358C131.2 67.0352 136.107 69.5661 141.847 69.9055C142.006 69.9151 142.112 69.8457 142.167 69.697C142.426 69.0117 142.607 68.2861 142.71 67.52C143.072 64.8436 143.396 62.2562 143.68 59.7576C143.961 57.2897 144.514 53.8036 146.701 52.3442C148.596 51.0739 151.35 51.937 152.553 53.7503C154.216 56.2667 155.025 59.9661 155.379 62.7976C155.451 63.3632 155.533 63.3648 155.627 62.8024C155.837 61.5741 156.086 60.3814 156.373 59.2242C157.232 55.743 160.432 55.263 163.089 57.0182C164.84 58.1754 166.566 59.7349 168.267 61.697C169.44 63.0448 169.416 65.4739 167.661 66.3758C164.926 67.777 163.496 65.28 161.842 63.6703C161.649 63.4828 161.537 63.5216 161.508 63.7867C161.222 66.4533 160.582 70.3079 158.308 71.9273C156.272 73.3818 153.581 72.9309 152.155 70.9188C150.599 68.7176 150.114 65.6436 149.484 63.0012Z" fill="white"/>
<path d="M210.739 64.3588C210.901 62.1317 211.218 59.8158 211.69 57.4109C212.47 53.4545 214.095 50.8218 218.594 51.1951C226.919 51.8885 233.838 55.6945 239.636 61.5758C240.853 62.8073 240.47 64.6158 239.476 65.9006C235.278 71.3309 229.957 74.8848 223.515 76.5624C222.814 76.7467 222.07 76.6319 221.285 76.2182C220.667 75.8949 220.252 75.3907 220.039 74.7055C219.544 73.1103 220.204 71.3406 221.944 70.8945C226.127 69.8149 229.883 67.5556 233.212 64.1164C233.351 63.9741 233.345 63.84 233.193 63.7139C229.047 60.1261 223.893 57.4109 218.395 57.1636C217.933 57.141 217.666 57.3576 217.595 57.8133C217.081 60.9972 216.635 64.2844 216.257 67.6751C216.118 68.9228 215.858 70.1818 215.476 71.4521C214.497 74.7103 211.729 76.5139 208.582 74.4048C206.085 72.7321 204.921 66.9479 204.63 64.2618C204.562 63.6509 204.475 63.6477 204.369 64.2521C204.168 65.3964 203.934 66.5374 203.665 67.6751C202.822 71.2048 199.699 71.8255 196.979 70.0558C195.234 68.918 193.498 67.3584 191.772 65.377C190.419 63.8206 190.652 61.2703 192.708 60.4703C195.21 59.4958 196.635 61.857 198.148 63.3551C198.339 63.5459 198.45 63.5071 198.482 63.2388C198.793 60.7806 199.36 56.7854 201.552 55.2145C204.339 53.2024 207.404 54.5115 208.645 57.4885C209.54 59.6283 210.148 61.9459 210.468 64.4412C210.471 64.4606 210.482 64.4687 210.502 64.4655L210.638 64.4606C210.702 64.4574 210.736 64.4234 210.739 64.3588Z" fill="white"/>
<path d="M193.081 76.6255C194.668 75.1677 196.412 74.0574 198.313 73.2946C200.094 72.5802 201.692 72.6982 203.108 73.6485C205.789 75.4521 205.125 78.6618 203.806 81.1394C202.862 82.9107 201.92 84.4186 200.979 85.663C200.676 86.0638 200.721 86.1059 201.115 85.7891C202.431 84.7289 203.855 83.6283 205.387 82.4873C208.32 80.3103 212.291 78.1333 215.37 81.4158C218.363 84.6061 220.506 88.2812 221.799 92.4412C222.982 96.2586 223.562 100.204 223.539 104.276C223.53 106.216 222.022 107.137 220.286 107.316C213.644 107.995 206.642 106.87 201.168 103.248C200.755 102.974 200.472 102.592 200.32 102.104C199.467 99.36 202.085 96.9406 204.659 98.5018C208.238 100.664 212.451 101.684 217.299 101.561C217.477 101.558 217.555 101.467 217.532 101.29C217.413 100.314 217.28 99.3196 217.135 98.3079C216.456 93.6436 214.589 89.5531 211.535 86.0364C211.453 85.9417 211.34 85.8804 211.217 85.8643C211.093 85.8482 210.968 85.8784 210.865 85.9491C208.341 87.6784 205.846 89.5661 203.379 91.6121C201.362 93.2865 199.507 94.3758 197.813 94.88C195.99 95.423 193.721 94.7006 192.912 92.7903C191.282 88.9358 194.943 84.1455 196.97 81.1249C197.002 81.0764 196.996 81.0327 196.95 80.9939L196.853 80.9164C196.84 80.9034 196.827 80.9034 196.815 80.9164C195.57 82.316 194.096 83.2695 192.393 83.777C189.76 84.5624 187.932 82.6861 187.438 80.2764C186.991 78.1107 186.867 75.7172 187.064 73.0958C187.37 69.0424 193.101 69.0958 192.989 73.5079C192.963 74.5228 192.929 75.5313 192.887 76.5333C192.878 76.7208 192.942 76.7515 193.081 76.6255Z" fill="white"/>
<path d="M162.395 80.2521C161.435 79.1919 160.676 78.101 160.116 76.9794C158.492 73.7164 160.519 71.3988 163.728 70.8412C165.749 70.4921 167.929 70.4016 170.269 70.5697C174.308 70.8606 174.487 76.3055 170.473 76.4655C169.306 76.5107 168.137 76.4832 166.967 76.383C166.767 76.3669 166.735 76.4315 166.87 76.577C168.196 77.9927 169.269 79.6267 170.09 81.4788C171.539 84.7564 170.051 88.6061 166.061 88.4655C163.462 88.3685 160.01 86.0945 157.92 84.5333C157.438 84.1713 157.387 84.2246 157.765 84.6933C159.879 87.3115 162.099 89.9297 163.355 92.9891C164.276 95.2291 163.791 97.3479 161.964 99.0206C160.516 100.339 159.097 101.425 157.707 102.279C152.645 105.385 146.613 106.979 139.612 107.059C137.673 107.082 136.575 106.174 136.32 104.335C135.404 97.7115 136.538 90.7297 139.985 85.0521C140.383 84.3992 140.866 83.9951 141.435 83.84C144.456 83.0206 146.497 85.7164 144.931 88.3394C142.81 91.8982 141.821 96.063 141.964 100.834C141.97 101.002 142.056 101.075 142.221 101.052C143.484 100.897 144.724 100.714 145.939 100.504C149.905 99.8158 153.421 98.2739 156.485 95.8788C156.866 95.5846 157.217 95.2646 157.537 94.9188C157.663 94.783 157.678 94.6376 157.581 94.4824C156.811 93.2024 155.955 91.9822 155.011 90.8218C152.89 88.2166 151.179 85.9685 149.876 84.0776C147.806 81.0715 147.699 76.5139 152.325 76.0339C155.665 75.68 159.612 78.6424 162.284 80.383C162.652 80.6222 162.689 80.5786 162.395 80.2521Z" fill="white"/>
<path d="M179.932 94.3418C183.219 94.5713 186.067 95.0885 188.475 95.8933C191.622 96.9406 192.558 99.1127 192.31 102.25C191.665 110.361 187.835 117.261 182.036 123.055C181.309 123.782 180.475 124.045 179.535 123.845C178.642 123.657 177.838 123.265 177.12 122.667C171.958 118.374 168.591 113.251 167.021 107.297C166.623 105.794 167.219 104.044 168.81 103.554C170.347 103.079 172.082 103.661 172.558 105.338C173.828 109.847 176.139 113.666 179.491 116.795C179.509 116.812 179.53 116.824 179.553 116.832C179.576 116.84 179.6 116.844 179.625 116.843C179.649 116.841 179.673 116.835 179.695 116.824C179.717 116.814 179.737 116.799 179.753 116.781C183.457 112.48 186.08 107.399 186.381 101.678C186.39 101.519 186.322 101.409 186.177 101.348C185.472 101.051 184.7 100.855 183.859 100.761C179.373 100.267 175.85 99.7883 173.29 99.3261C169.808 98.6958 166.705 96.1164 168.97 92.3006C170.55 89.6388 176.339 88.5139 179.195 88.1309C179.887 88.0372 179.887 87.9434 179.195 87.8497C175.661 87.3648 171.307 86.6376 172.834 81.6921C173.083 80.897 173.766 79.8545 174.885 78.5648C176.11 77.1555 177.286 75.9951 178.415 75.0836C179.961 73.8376 182.468 74.3903 183.113 76.4267C183.888 78.8752 181.6 80.1503 180.155 81.6727C179.977 81.8602 180.016 81.9701 180.271 82.0024C182.749 82.3079 187.093 82.9285 188.499 85.3382C189.763 87.5006 189.509 89.4093 187.738 91.0642C185.964 92.7224 182.381 93.377 179.903 93.9248C178.953 94.1349 178.962 94.2739 179.932 94.3418Z" fill="white"/>
</svg>
