<?xml version="1.0" encoding="UTF-8" standalone="no"?>
<!DOCTYPE svg PUBLIC "-//W3C//DTD SVG 1.1//EN" "http://www.w3.org/Graphics/SVG/1.1/DTD/svg11.dtd">
<svg xmlns="http://www.w3.org/2000/svg" version="1.1" viewBox="0.00 0.00 1000.00 264.00">
<path fill="#ffffff" d="
  M 669.69 164.01
  C 678.84 159.56 687.53 157.83 698.29 158.37
  Q 708.46 158.87 715.05 164.29
  C 718.11 166.81 721.02 171.12 716.09 173.90
  C 710.86 176.85 705.94 175.51 701.03 172.80
  Q 698.45 171.39 695.06 171.11
  Q 680.55 169.95 668.40 176.91
  Q 664.05 179.41 660.59 180.17
  C 650.71 182.32 651.37 172.10 653.90 166.29
  Q 672.89 122.56 703.08 82.74
  C 706.85 77.76 712.12 82.22 714.70 85.78
  Q 717.33 89.40 714.42 92.82
  C 700.60 109.04 689.47 126.59 678.46 144.91
  Q 672.93 154.11 668.91 163.26
  Q 668.28 164.69 669.69 164.01
  Z"
/>
<path fill="#ffffff" d="
  M 341.56 131.51
  C 343.63 130.91 345.76 130.19 347.97 130.25
  C 356.04 130.48 359.71 137.88 357.60 145.19
  C 354.72 155.20 341.80 161.39 332.68 161.37
  Q 332.01 161.37 331.81 162.01
  Q 329.82 168.43 335.24 169.58
  C 343.32 171.30 354.01 162.11 359.33 156.75
  C 363.31 152.73 369.59 158.37 365.55 162.60
  C 355.95 172.67 343.99 183.65 329.41 180.86
  C 319.63 178.99 317.41 170.44 319.87 161.84
  C 320.79 158.62 324.29 156.80 327.19 155.65
  Q 332.56 153.52 337.58 151.55
  C 340.35 150.47 344.71 148.03 344.41 144.51
  C 344.07 140.47 340.74 138.82 337.03 139.65
  C 330.09 141.21 323.33 147.35 318.45 153.23
  Q 315.66 156.59 313.87 161.97
  Q 310.93 170.79 308.91 178.85
  C 308.30 181.29 305.27 181.52 303.32 180.65
  Q 298.36 178.41 298.36 174.32
  Q 298.36 173.60 297.76 174.01
  Q 285.59 182.26 270.71 181.14
  Q 262.09 180.49 258.00 173.35
  Q 257.67 172.77 257.17 173.21
  C 251.26 178.38 243.33 182.48 235.51 180.08
  Q 231.00 178.69 229.67 174.49
  Q 229.48 173.89 229.05 174.35
  Q 221.13 182.76 209.82 180.62
  C 204.75 179.65 201.18 175.94 199.98 170.96
  Q 199.80 170.21 199.18 170.68
  C 191.04 176.91 180.34 182.93 169.92 180.35
  C 159.66 177.82 157.73 167.93 159.54 158.95
  Q 161.12 151.15 164.68 143.45
  Q 177.39 115.90 196.92 93.34
  Q 202.34 87.07 208.34 83.11
  C 214.30 79.17 218.75 82.39 221.51 87.69
  Q 227.61 99.39 225.21 110.57
  C 224.54 113.74 222.43 115.69 219.92 117.46
  C 206.97 126.54 192.20 136.03 181.21 145.48
  Q 174.30 151.42 172.81 161.18
  C 172.09 165.84 175.55 168.33 179.91 167.79
  C 186.32 167.00 193.34 162.90 198.83 158.58
  Q 200.15 157.53 200.68 156.11
  Q 205.48 143.39 215.18 135.64
  C 223.36 129.10 234.03 125.83 243.88 130.32
  C 248.25 132.31 249.88 137.42 247.69 141.66
  Q 246.51 143.94 244.19 144.65
  C 237.77 146.61 236.17 137.36 228.33 141.09
  Q 218.04 145.99 214.28 156.82
  C 213.30 159.65 212.51 164.27 214.36 166.94
  C 216.95 170.67 222.04 169.06 225.10 166.72
  Q 232.74 160.88 235.40 152.33
  C 237.61 145.22 246.11 147.31 249.38 151.91
  A 2.70 2.69 -44.4 0 1 249.34 155.11
  C 246.83 158.46 243.53 162.41 243.31 166.77
  A 1.63 1.62 -87.9 0 0 244.89 168.48
  C 247.56 168.55 252.99 164.81 255.61 163.33
  Q 256.01 163.11 256.10 162.67
  Q 260.24 142.83 277.05 132.59
  Q 285.93 127.18 295.52 128.52
  Q 303.69 129.66 304.07 137.26
  C 304.28 141.36 301.20 145.55 297.25 146.79
  A 2.01 2.01 0.0 0 1 294.64 144.94
  C 294.49 140.87 291.53 140.58 288.34 140.68
  C 279.53 140.98 271.05 152.13 270.36 160.12
  Q 269.64 168.42 277.82 169.21
  C 286.37 170.04 292.86 166.22 299.42 161.19
  Q 300.81 160.13 301.36 158.61
  Q 313.78 124.74 336.92 97.03
  C 341.57 91.46 347.47 84.70 354.07 81.66
  C 357.88 79.91 361.51 82.84 363.36 85.99
  Q 369.74 96.84 367.76 108.85
  C 367.14 112.60 365.12 114.89 361.97 117.04
  Q 352.21 123.70 341.38 131.14
  Q 340.35 131.85 341.56 131.51
  Z
  M 353.85 111.53
  C 358.79 107.32 357.34 100.53 355.11 95.21
  Q 354.87 94.64 354.43 95.08
  Q 339.15 110.81 327.92 129.62
  Q 327.09 131.00 328.46 130.15
  Q 341.44 122.11 353.85 111.53
  Z
  M 211.81 111.90
  C 216.64 107.75 215.17 100.62 212.78 95.51
  A 0.22 0.22 0.0 0 0 212.42 95.45
  Q 197.25 111.03 185.86 129.94
  Q 184.91 131.51 186.47 130.54
  Q 199.54 122.44 211.81 111.90
  Z"
/>
<path fill="#ffffff" d="
  M 149.40 126.52
  C 149.78 126.75 150.31 126.89 150.67 127.13
  Q 156.63 131.21 156.84 139.30
  Q 157.24 154.03 146.99 164.96
  Q 129.57 183.53 103.42 183.15
  C 89.27 182.94 70.12 176.97 71.00 160.00
  C 71.36 153.10 83.65 151.73 84.42 158.66
  Q 85.41 167.62 95.44 169.82
  Q 116.64 174.48 133.38 159.81
  Q 142.08 152.18 141.99 140.82
  C 141.92 132.89 134.75 132.62 129.37 130.17
  C 126.00 128.63 126.92 124.15 130.19 123.16
  C 138.71 120.58 152.91 114.32 154.32 104.57
  Q 155.71 94.97 145.03 92.36
  C 143.53 91.99 141.80 92.47 140.92 93.81
  Q 124.34 119.15 109.93 145.73
  Q 106.72 151.66 103.89 157.75
  C 101.68 162.50 86.53 155.89 91.67 148.72
  Q 93.94 145.57 96.03 142.30
  Q 109.33 121.53 120.84 101.87
  Q 122.22 99.51 123.48 96.90
  A 1.02 1.02 0.0 0 0 123.09 95.59
  Q 122.52 95.24 121.81 95.50
  Q 114.59 98.20 110.65 101.81
  C 108.48 103.80 104.93 108.55 101.45 106.08
  C 97.70 103.41 99.13 98.12 101.97 95.34
  Q 110.60 86.87 121.59 83.90
  C 134.00 80.56 150.03 79.44 160.26 87.64
  C 166.95 93.01 168.84 103.02 165.05 110.57
  C 161.68 117.27 156.11 122.23 149.43 125.67
  Q 148.66 126.07 149.40 126.52
  Z"
/>
<path fill="#ffffff" d="
  M 814.80 113.14
  Q 820.45 112.42 824.95 112.23
  Q 828.42 112.07 827.67 115.52
  Q 825.70 124.64 816.35 124.40
  Q 811.61 124.28 807.03 124.48
  Q 806.47 124.50 806.16 124.97
  Q 795.81 140.47 790.22 156.28
  C 789.46 158.43 788.69 161.73 789.84 163.85
  Q 791.71 167.33 796.01 165.95
  Q 802.35 163.92 810.26 157.80
  Q 811.66 156.71 812.35 155.17
  Q 818.85 140.82 825.32 128.89
  C 827.47 124.94 832.04 127.33 834.60 129.21
  Q 839.56 132.85 836.05 138.44
  C 832.72 143.73 821.17 159.49 825.72 165.47
  C 827.53 167.85 832.06 165.90 834.12 164.70
  Q 841.44 160.45 846.07 152.63
  Q 850.97 144.36 854.37 136.00
  Q 855.20 133.96 855.71 131.65
  C 856.44 128.28 860.08 128.23 862.57 129.48
  C 866.28 131.35 870.94 136.01 868.15 140.46
  Q 861.96 150.33 858.41 159.53
  C 856.99 163.22 857.94 167.42 863.01 165.62
  Q 866.80 164.26 869.99 161.69
  A 0.86 0.86 0.0 0 0 870.31 161.04
  C 870.43 157.33 872.45 153.51 875.81 151.86
  C 879.52 150.03 883.26 151.50 883.33 156.00
  C 883.39 159.26 880.39 161.92 884.05 164.84
  Q 888.66 168.51 895.17 166.80
  C 899.35 165.71 899.04 161.41 896.18 159.19
  C 891.41 155.48 881.87 149.64 882.24 142.63
  C 882.73 133.21 892.21 126.92 900.86 125.93
  C 907.40 125.18 913.82 126.11 918.78 130.43
  C 923.16 134.25 924.49 141.89 919.38 145.64
  Q 914.42 149.28 908.73 147.70
  C 904.44 146.52 903.53 141.63 908.29 140.10
  Q 909.86 139.60 911.46 139.23
  Q 912.14 139.07 912.01 138.38
  Q 911.69 136.56 909.82 136.04
  Q 902.05 133.86 897.82 138.94
  C 894.71 142.68 897.54 147.00 900.81 149.40
  C 907.06 154.00 918.11 161.08 911.90 170.29
  C 904.04 181.94 882.33 181.44 873.85 171.25
  Q 873.44 170.75 872.94 171.17
  C 868.27 175.16 863.05 178.09 857.04 178.69
  C 851.10 179.29 846.25 176.15 845.09 170.16
  Q 844.91 169.18 844.24 169.92
  Q 837.72 177.18 827.26 178.65
  C 820.58 179.59 813.29 176.57 811.10 170.06
  Q 810.82 169.25 810.14 169.75
  C 803.82 174.38 795.06 179.31 787.07 178.76
  C 777.49 178.11 774.10 168.51 775.40 160.09
  Q 776.40 153.63 779.34 147.29
  Q 784.23 136.77 790.41 126.70
  Q 791.04 125.69 789.88 125.96
  Q 788.49 126.27 787.25 126.09
  C 783.19 125.50 783.87 116.45 788.62 115.81
  Q 793.03 115.22 797.09 114.44
  Q 797.55 114.35 797.80 113.95
  C 803.21 105.24 809.39 96.19 816.39 89.38
  C 819.90 85.96 822.73 84.36 827.37 87.41
  C 831.11 89.88 830.28 92.82 827.85 95.59
  Q 821.10 103.29 814.43 112.51
  Q 813.89 113.25 814.80 113.14
  Z"
/>
<path fill="#ffffff" d="
  M 727.4324 174.9046
  A 30.83 21.12 133.9 0 1 733.5920 138.0454
  A 30.83 21.12 133.9 0 1 770.1876 130.4754
  A 30.83 21.12 133.9 0 1 764.0280 167.3346
  A 30.83 21.12 133.9 0 1 727.4324 174.9046
  Z
  M 738.9305 165.7440
  A 16.66 9.22 126.2 0 0 756.2102 157.7454
  A 16.66 9.22 126.2 0 0 758.6095 138.8560
  A 16.66 9.22 126.2 0 0 741.3298 146.8546
  A 16.66 9.22 126.2 0 0 738.9305 165.7440
  Z"
/>
</svg>
