<?xml version="1.0" encoding="UTF-8" standalone="no"?>
<!DOCTYPE svg PUBLIC "-//W3C//DTD SVG 1.1//EN" "http://www.w3.org/Graphics/SVG/1.1/DTD/svg11.dtd">
<svg xmlns="http://www.w3.org/2000/svg" version="1.1" viewBox="0.00 0.00 264.00 264.00">
<path fill="#ffffff" d="
  M 132.50 67.44
  Q 126.30 67.07 119.31 65.59
  C 111.70 63.97 105.91 61.00 106.55 52.07
  C 107.80 34.68 115.78 19.84 128.04 8.01
  C 130.85 5.30 134.89 6.49 137.57 8.70
  Q 154.03 22.27 158.79 40.86
  C 160.33 46.86 154.45 50.73 149.32 47.69
  C 148.31 47.09 147.43 45.27 147.12 44.16
  Q 143.49 30.92 133.06 21.12
  A 0.34 0.33 42.2 0 0 132.57 21.14
  C 124.96 29.78 119.68 40.13 118.88 51.51
  Q 118.75 53.33 120.56 53.58
  Q 132.25 55.20 143.64 56.70
  C 148.59 57.36 155.68 59.82 156.16 65.36
  C 156.85 73.39 150.01 76.35 143.43 78.14
  Q 137.87 79.66 133.25 80.32
  Q 131.94 80.51 133.25 80.72
  Q 137.35 81.36 141.17 82.38
  C 148.21 84.25 148.90 90.92 145.34 96.22
  Q 142.43 100.53 137.78 105.04
  Q 135.98 106.79 134.33 107.73
  C 131.12 109.57 126.86 108.09 125.64 104.52
  C 123.89 99.41 128.65 96.72 131.65 93.58
  Q 132.23 92.98 131.40 92.87
  C 126.82 92.29 121.96 91.47 117.82 89.14
  C 112.22 85.99 111.14 78.62 115.97 74.24
  C 119.87 70.69 127.02 69.42 132.56 68.23
  Q 135.46 67.61 132.50 67.44
  Z"
/>
<path fill="#ffffff" d="
  M 97.44 94.70
  C 101.91 90.58 111.12 84.72 115.40 93.05
  C 117.97 98.08 117.86 105.69 117.41 111.32
  C 116.80 119.05 105.79 119.55 105.32 111.64
  Q 105.11 108.03 105.45 104.25
  Q 105.51 103.51 104.96 104.01
  Q 100.43 108.23 94.55 110.71
  Q 88.79 113.15 84.21 110.01
  C 78.36 106.00 80.52 99.00 83.43 93.64
  Q 86.23 88.47 89.19 84.92
  Q 89.20 84.90 89.19 84.89
  L 89.03 84.68
  Q 88.93 84.55 88.81 84.66
  Q 80.01 92.23 73.49 95.69
  C 68.57 98.30 63.36 98.53 59.25 94.27
  C 47.30 81.87 42.11 64.45 42.21 47.35
  Q 42.25 41.74 47.71 40.93
  C 61.15 38.93 75.78 41.35 87.70 48.54
  Q 89.78 49.80 90.28 52.13
  C 91.53 57.88 85.89 61.74 80.89 58.72
  Q 70.49 52.45 56.44 52.52
  Q 55.79 52.53 55.14 52.40
  Q 54.60 52.29 54.64 52.84
  Q 55.61 67.06 61.99 77.85
  Q 64.25 81.69 67.21 84.67
  Q 67.61 85.07 68.10 84.78
  Q 72.50 82.16 75.45 79.70
  Q 83.99 72.58 89.75 68.71
  C 93.07 66.47 97.77 64.96 102.05 67.01
  C 105.92 68.87 106.95 74.27 105.90 78.05
  C 104.17 84.23 100.55 89.14 97.19 94.49
  Q 96.52 95.55 97.44 94.70
  Z"
/>
<path fill="#ffffff" d="
  M 168.33 96.43
  C 172.39 101.01 178.33 110.14 169.93 114.41
  C 164.89 116.97 157.66 116.80 151.97 116.45
  C 143.38 115.93 143.34 103.88 152.91 104.22
  Q 155.75 104.32 158.63 104.39
  Q 159.31 104.41 158.86 103.89
  Q 154.77 99.22 152.43 93.93
  Q 149.90 88.18 152.72 83.61
  C 158.64 74.04 172.35 83.77 178.13 88.05
  A 0.14 0.13 -0.8 0 0 178.32 87.86
  Q 174.35 83.00 170.99 78.48
  Q 167.65 73.98 166.04 69.31
  C 164.60 65.13 165.61 61.15 168.87 58.07
  C 181.57 46.10 198.88 41.04 216.13 41.22
  C 220.10 41.26 221.92 44.28 222.30 47.81
  C 223.75 61.33 221.43 77.17 213.39 88.05
  A 1.85 1.83 -84.7 0 1 212.71 88.62
  C 208.62 90.54 204.15 89.10 203.30 84.31
  Q 202.92 82.19 204.10 80.24
  Q 210.85 69.14 210.46 54.05
  Q 210.45 53.52 209.92 53.58
  C 197.76 54.97 187.62 57.87 178.38 66.04
  Q 177.84 66.51 178.21 67.12
  Q 180.09 70.17 181.97 72.59
  Q 186.89 78.96 191.83 85.27
  C 195.12 89.48 198.50 95.17 196.24 100.56
  C 194.47 104.79 188.95 106.07 184.90 104.89
  C 178.85 103.12 173.84 99.65 168.54 96.19
  Q 167.53 95.53 168.33 96.43
  Z"
/>
<path fill="#ffffff" d="
  M 69.06 129.94
  Q 68.69 128.42 68.56 129.98
  Q 67.87 138.37 66.01 146.12
  C 64.43 152.73 60.61 156.94 53.22 156.46
  C 35.91 155.32 21.45 147.45 9.25 135.27
  C 5.89 131.90 7.83 127.56 10.42 124.53
  Q 23.87 108.80 42.04 104.15
  C 44.91 103.41 48.41 104.81 49.37 107.77
  C 50.50 111.27 49.11 114.78 45.42 115.78
  Q 32.34 119.31 22.22 129.81
  Q 21.80 130.24 22.26 130.63
  C 31.35 138.26 41.47 143.48 53.31 144.18
  Q 53.80 144.21 53.97 143.75
  Q 54.77 141.63 55.09 139.26
  Q 56.21 130.98 57.09 123.25
  C 57.67 118.16 58.81 110.97 63.32 107.96
  C 67.23 105.34 72.91 107.12 75.39 110.86
  C 78.82 116.05 80.49 123.68 81.22 129.52
  Q 81.44 131.27 81.73 129.53
  Q 82.38 125.73 83.27 122.15
  C 85.04 114.97 91.64 113.98 97.12 117.60
  Q 102.54 121.18 107.80 127.25
  C 110.22 130.03 110.17 135.04 106.55 136.90
  C 100.91 139.79 97.96 134.64 94.55 131.32
  Q 93.95 130.74 93.86 131.56
  C 93.27 137.06 91.95 145.01 87.26 148.35
  C 83.06 151.35 77.51 150.42 74.57 146.27
  C 71.36 141.73 70.36 135.39 69.06 129.94
  Z"
/>
<path fill="#ffffff" d="
  M 195.40 132.74
  Q 195.90 125.85 197.36 118.41
  C 198.97 110.25 202.32 104.82 211.60 105.59
  C 228.77 107.02 243.04 114.87 255.00 127.00
  C 257.51 129.54 256.72 133.27 254.67 135.92
  Q 241.68 152.72 221.75 157.91
  Q 219.58 158.48 217.15 157.20
  Q 215.24 156.20 214.58 154.08
  C 213.56 150.79 214.92 147.14 218.51 146.22
  Q 231.45 142.88 241.75 132.24
  Q 242.18 131.80 241.71 131.41
  C 233.16 124.01 222.53 118.41 211.19 117.90
  Q 209.76 117.83 209.54 119.24
  Q 207.95 129.09 206.78 139.58
  Q 206.35 143.44 205.17 147.37
  C 203.15 154.09 197.44 157.81 190.95 153.46
  C 185.80 150.01 183.40 138.08 182.80 132.54
  Q 182.59 130.65 182.26 132.52
  Q 181.64 136.06 180.81 139.58
  C 179.07 146.86 172.63 148.14 167.02 144.49
  Q 161.62 140.97 156.28 134.84
  C 153.49 131.63 153.97 126.37 158.21 124.72
  C 163.37 122.71 166.31 127.58 169.43 130.67
  Q 170.02 131.26 170.12 130.43
  C 170.76 125.36 171.93 117.12 176.45 113.88
  C 182.20 109.73 188.52 112.43 191.08 118.57
  Q 193.85 125.19 194.84 132.91
  Q 194.85 132.97 194.91 132.96
  L 195.19 132.95
  Q 195.39 132.94 195.40 132.74
  Z"
/>
<path fill="#ffffff" d="
  M 158.98 158.04
  Q 163.89 153.53 169.77 151.17
  Q 175.28 148.96 179.66 151.90
  C 185.19 155.62 183.82 162.24 181.10 167.35
  Q 178.18 172.83 175.27 176.68
  Q 174.33 177.92 175.55 176.94
  Q 179.62 173.66 184.36 170.13
  C 190.41 165.64 198.60 161.15 204.95 167.92
  Q 214.21 177.79 218.21 190.66
  Q 221.87 202.47 221.80 215.07
  C 221.78 219.07 218.67 220.97 215.09 221.34
  C 201.39 222.74 186.95 220.42 175.66 212.95
  Q 174.38 212.10 173.91 210.59
  C 172.15 204.93 177.55 199.94 182.86 203.16
  Q 193.93 209.85 208.93 209.47
  Q 209.48 209.46 209.41 208.91
  Q 209.04 205.89 208.59 202.76
  Q 206.49 188.33 197.04 177.45
  A 1.04 1.04 0.0 0 0 195.66 177.27
  Q 187.85 182.62 180.22 188.95
  Q 173.98 194.13 168.74 195.69
  C 164.98 196.81 160.30 195.32 158.63 191.38
  C 155.27 183.43 162.82 173.55 167.00 167.32
  Q 167.10 167.17 166.96 167.05
  L 166.76 166.89
  Q 166.72 166.85 166.68 166.89
  Q 162.83 171.22 157.56 172.79
  C 152.13 174.41 148.36 170.54 147.34 165.57
  Q 145.96 158.87 146.57 150.76
  C 147.20 142.40 159.02 142.51 158.79 151.61
  Q 158.71 154.75 158.58 157.85
  Q 158.55 158.43 158.98 158.04
  Z"
/>
<path fill="#ffffff" d="
  M 95.69 165.52
  Q 92.72 162.24 90.99 158.77
  C 87.64 152.04 91.82 147.26 98.44 146.11
  Q 104.69 145.03 111.93 145.55
  C 120.26 146.15 120.63 157.38 112.35 157.71
  Q 108.74 157.85 105.12 157.54
  Q 104.50 157.49 104.92 157.94
  Q 109.02 162.32 111.56 168.05
  C 114.55 174.81 111.48 182.75 103.25 182.46
  C 97.89 182.26 90.77 177.57 86.46 174.35
  Q 84.97 173.23 86.14 174.68
  C 90.50 180.08 95.08 185.48 97.67 191.79
  C 99.57 196.41 98.57 200.78 94.80 204.23
  Q 90.32 208.31 86.02 210.95
  Q 70.36 220.56 48.70 220.81
  Q 42.70 220.88 41.91 215.19
  C 40.02 201.53 42.36 187.13 49.47 175.42
  Q 50.70 173.40 52.46 172.92
  C 58.69 171.23 62.90 176.79 59.67 182.20
  Q 53.11 193.21 53.55 207.97
  Q 53.57 208.49 54.08 208.42
  Q 57.99 207.94 61.75 207.29
  Q 74.02 205.16 83.50 197.75
  Q 84.68 196.84 85.67 195.77
  Q 86.06 195.35 85.76 194.87
  Q 83.38 190.91 80.46 187.32
  Q 73.90 179.26 69.87 173.41
  C 65.60 167.21 65.38 157.81 74.92 156.82
  C 81.81 156.09 89.95 162.20 95.46 165.79
  Q 96.60 166.53 95.69 165.52
  Z"
/>
<path fill="#ffffff" d="
  M 131.86 194.58
  Q 142.03 195.29 149.48 197.78
  C 155.97 199.94 157.90 204.42 157.39 210.89
  C 156.06 227.62 148.16 241.85 136.20 253.80
  Q 133.95 256.05 131.04 255.43
  Q 128.28 254.85 126.06 253.00
  Q 110.09 239.72 105.23 221.30
  C 104.41 218.20 105.64 214.59 108.92 213.58
  C 112.09 212.60 115.67 213.80 116.65 217.26
  Q 120.58 231.21 130.95 240.89
  A 0.38 0.38 0.0 0 0 131.49 240.86
  C 139.13 231.99 144.54 221.51 145.16 209.71
  Q 145.19 209.22 144.74 209.03
  Q 142.56 208.11 139.96 207.82
  Q 126.08 206.29 118.16 204.86
  C 110.98 203.56 104.58 198.24 109.25 190.37
  C 112.51 184.88 124.45 182.56 130.34 181.77
  Q 132.48 181.48 130.34 181.19
  C 123.05 180.19 114.07 178.69 117.22 168.49
  Q 117.99 166.03 121.45 162.04
  Q 125.24 157.68 128.73 154.86
  C 131.92 152.29 137.09 153.43 138.42 157.63
  C 140.02 162.68 135.30 165.31 132.32 168.45
  Q 131.77 169.03 132.56 169.13
  C 137.67 169.76 146.63 171.04 149.53 176.01
  Q 153.44 182.70 147.96 187.82
  C 144.30 191.24 136.91 192.59 131.80 193.72
  Q 128.86 194.37 131.86 194.58
  Z"
/>
</svg>
