<?xml version="1.0" encoding="UTF-8" standalone="no"?>
<!DOCTYPE svg PUBLIC "-//W3C//DTD SVG 1.1//EN" "http://www.w3.org/Graphics/SVG/1.1/DTD/svg11.dtd">
<svg xmlns="http://www.w3.org/2000/svg" version="1.1" viewBox="0.00 0.00 700.00 264.00">
<path fill="#ffffff" d="
  M 394.56 164.04
  C 406.01 158.63 418.62 156.64 430.58 159.50
  Q 436.99 161.03 442.10 166.22
  C 444.51 168.67 444.18 172.16 441.07 173.92
  C 436.20 176.66 431.23 175.71 426.53 173.04
  Q 423.39 171.25 419.22 171.03
  Q 405.70 170.33 395.17 175.98
  C 391.12 178.16 385.34 181.73 380.80 180.01
  C 375.02 177.81 377.61 168.92 379.50 164.70
  Q 399.42 120.33 427.97 82.89
  C 431.85 77.80 436.96 82.04 439.65 85.70
  Q 442.36 89.39 439.43 92.82
  C 425.54 109.09 414.37 126.78 403.37 145.06
  Q 398.00 153.99 393.86 163.36
  Q 393.30 164.64 394.56 164.04
  Z"
/>
<path fill="#ffffff" d="
  M 323.56 131.50
  C 325.67 130.89 327.84 130.17 330.10 130.26
  C 338.34 130.59 341.74 138.21 339.50 145.60
  C 336.54 155.32 323.65 161.34 314.64 161.36
  Q 314.02 161.36 313.83 161.96
  C 310.97 171.09 320.51 170.80 325.57 168.36
  Q 333.91 164.32 341.28 156.75
  C 345.10 152.84 351.63 158.04 347.50 162.61
  C 343.62 166.90 339.15 171.01 334.59 174.44
  Q 327.35 179.88 318.59 181.10
  C 305.60 182.90 298.29 174.45 301.86 161.87
  C 302.76 158.69 306.16 156.84 309.06 155.71
  Q 314.55 153.57 319.76 151.46
  C 322.53 150.34 326.70 148.00 326.41 144.52
  C 325.85 137.67 318.54 139.19 314.52 141.31
  Q 307.07 145.24 300.41 153.27
  Q 297.67 156.60 295.84 162.05
  Q 292.84 171.02 290.93 178.83
  C 290.33 181.27 287.27 181.53 285.33 180.65
  Q 280.29 178.35 280.38 174.35
  Q 280.40 173.54 279.73 174.00
  Q 267.49 182.44 252.14 181.06
  Q 243.89 180.32 239.90 173.22
  Q 239.64 172.76 239.25 173.11
  C 233.33 178.42 225.15 182.57 217.27 180.00
  Q 212.98 178.60 211.66 174.43
  A 0.35 0.35 0.0 0 0 211.07 174.30
  Q 203.57 182.45 192.50 180.74
  C 187.06 179.91 183.24 176.23 181.98 170.97
  Q 181.80 170.21 181.18 170.68
  C 175.13 175.30 168.95 178.95 161.57 180.48
  C 152.14 182.45 142.16 178.45 141.11 167.74
  C 140.37 160.17 142.93 151.92 145.93 145.18
  Q 158.20 117.60 178.60 93.68
  Q 183.87 87.50 190.07 83.30
  C 202.22 75.09 207.45 95.50 207.89 103.55
  C 208.12 107.73 207.34 113.53 203.66 116.14
  C 190.28 125.60 174.84 135.60 163.50 145.19
  Q 156.06 151.49 154.82 161.57
  C 154.09 167.45 159.75 168.66 164.22 167.38
  Q 173.06 164.85 181.02 158.40
  Q 182.22 157.42 182.80 155.88
  Q 187.54 143.30 197.20 135.63
  C 205.43 129.09 215.84 125.90 225.71 130.24
  C 235.14 134.39 229.56 149.52 220.83 143.67
  C 217.40 141.37 215.57 138.92 210.93 140.88
  Q 200.63 145.21 196.39 156.44
  Q 194.75 160.80 195.48 164.71
  C 196.63 170.82 203.26 169.64 207.03 166.77
  Q 214.72 160.91 217.36 152.43
  C 219.59 145.26 227.91 147.24 231.33 151.84
  A 2.77 2.76 45.3 0 1 231.32 155.16
  C 228.88 158.36 225.48 162.52 225.31 166.75
  A 1.66 1.66 0.0 0 0 226.90 168.47
  Q 228.07 168.52 229.21 167.92
  Q 233.62 165.59 237.63 163.32
  Q 238.13 163.04 238.24 162.47
  Q 241.35 145.59 255.82 134.66
  C 262.17 129.86 272.05 126.49 279.98 129.09
  C 288.98 132.04 287.39 143.95 279.44 146.72
  C 277.97 147.23 276.66 146.36 276.61 144.81
  Q 276.50 141.24 273.10 140.79
  Q 267.01 140.00 261.79 144.21
  C 256.58 148.42 250.84 156.74 252.59 163.80
  Q 253.76 168.52 259.18 169.14
  C 268.14 170.16 274.66 166.38 281.45 161.18
  Q 282.81 160.15 283.37 158.60
  Q 297.37 120.35 324.61 90.64
  Q 328.39 86.52 333.82 82.81
  Q 338.86 79.36 342.80 82.96
  C 348.66 88.32 350.70 99.00 350.12 106.43
  C 349.67 112.26 347.47 114.72 342.64 117.97
  Q 332.78 124.61 323.40 131.17
  Q 322.46 131.82 323.56 131.50
  Z
  M 335.99 111.39
  C 340.75 107.27 339.32 100.37 337.13 95.22
  Q 336.92 94.73 336.52 95.10
  Q 335.23 96.31 334.02 97.61
  Q 320.39 112.16 309.95 129.57
  Q 309.07 131.03 310.52 130.12
  Q 324.33 121.48 335.99 111.39
  Z
  M 193.85 111.87
  C 198.66 107.73 197.12 100.69 194.83 95.53
  A 0.27 0.26 55.1 0 0 194.40 95.45
  Q 178.82 111.55 167.86 129.95
  Q 166.93 131.51 168.48 130.55
  Q 181.84 122.21 193.85 111.87
  Z"
/>
<path fill="#ffffff" d="
  M 131.41 126.49
  C 134.82 128.18 137.24 131.05 138.12 134.75
  C 141.14 147.49 134.86 160.39 125.13 168.82
  Q 106.81 184.68 82.46 183.02
  C 69.00 182.11 52.28 175.96 53.01 160.10
  C 53.33 153.09 65.62 151.64 66.42 158.78
  Q 67.42 167.70 77.73 169.89
  Q 98.87 174.38 115.52 159.69
  Q 122.70 153.35 123.92 143.85
  C 124.49 139.35 123.38 134.53 118.62 132.92
  Q 115.22 131.78 111.94 130.44
  C 111.21 130.15 110.39 129.69 109.97 129.00
  C 108.14 125.94 110.04 123.77 112.85 122.92
  Q 122.95 119.84 130.22 114.09
  C 135.00 110.30 138.23 104.05 135.53 98.15
  C 134.06 94.92 127.67 90.91 124.17 92.69
  Q 123.36 93.11 122.49 94.45
  Q 106.36 119.22 92.20 145.21
  Q 89.09 150.90 86.42 156.78
  Q 84.92 160.09 81.28 159.29
  C 76.94 158.34 69.84 154.07 73.58 148.85
  Q 75.90 145.62 78.03 142.30
  Q 91.53 121.26 103.86 100.12
  Q 104.90 98.34 105.51 96.49
  A 0.84 0.84 0.0 0 0 104.50 95.41
  C 98.66 97.01 93.56 100.47 89.37 104.96
  C 85.32 109.30 80.26 105.14 81.34 100.15
  Q 81.98 97.18 84.40 94.88
  Q 93.38 86.33 105.11 83.51
  Q 119.40 80.08 130.58 82.34
  C 140.37 84.31 148.23 90.41 148.92 101.05
  C 149.64 112.11 140.38 121.01 131.40 125.70
  Q 130.62 126.11 131.41 126.49
  Z"
/>
<path fill="#ffffff" d="
  M 539.79 113.14
  Q 545.09 112.47 549.85 112.22
  Q 553.49 112.04 552.66 115.67
  Q 550.57 124.74 541.09 124.42
  Q 536.52 124.27 532.00 124.48
  Q 531.46 124.51 531.15 124.96
  Q 520.52 140.93 515.21 156.41
  Q 514.58 158.25 514.29 160.32
  C 513.73 164.37 516.63 167.26 520.82 166.01
  Q 527.04 164.14 535.35 157.72
  Q 536.69 156.69 537.42 155.05
  Q 542.93 142.66 550.24 128.99
  C 552.62 124.54 558.29 127.75 560.66 130.16
  Q 564.04 133.58 561.25 138.04
  C 558.18 142.96 545.98 159.91 550.69 165.42
  Q 552.38 167.39 555.52 166.24
  C 564.62 162.91 569.57 155.84 574.11 147.32
  Q 578.95 138.24 580.63 131.93
  C 581.33 129.31 583.27 128.13 585.84 128.89
  C 590.06 130.13 596.32 135.40 593.13 140.49
  Q 586.86 150.49 583.40 159.59
  C 582.88 160.95 582.27 163.48 583.29 164.72
  C 586.02 168.02 592.46 163.72 594.94 161.72
  Q 595.28 161.45 595.30 161.02
  Q 595.61 155.69 599.56 152.61
  C 604.76 148.55 610.58 153.12 607.62 159.15
  C 606.37 161.71 607.93 164.42 610.25 165.71
  Q 615.65 168.69 621.36 166.31
  C 625.02 164.79 622.96 160.40 620.71 158.77
  C 615.84 155.23 606.91 149.44 607.25 142.53
  C 607.62 135.16 614.52 128.73 621.50 126.81
  C 630.45 124.34 645.93 125.75 647.54 137.50
  C 649.22 149.67 629.83 150.93 630.12 143.69
  C 630.24 140.48 633.91 139.81 636.47 139.22
  Q 637.21 139.05 637.04 138.30
  Q 636.65 136.57 634.87 136.05
  Q 627.21 133.84 622.90 138.85
  C 619.69 142.58 622.48 146.96 625.81 149.41
  Q 630.38 152.75 634.37 156.34
  C 642.26 163.41 638.29 172.17 630.08 176.15
  C 620.20 180.93 606.00 179.76 598.86 171.23
  Q 598.44 170.74 597.95 171.16
  C 593.09 175.29 587.71 178.31 581.47 178.73
  C 575.78 179.11 571.21 175.93 570.10 170.19
  Q 569.91 169.16 569.21 169.94
  Q 563.06 176.85 552.95 178.56
  C 546.04 179.74 538.36 176.82 536.07 170.02
  Q 535.83 169.30 535.20 169.74
  C 528.14 174.73 516.72 181.42 508.12 177.85
  C 501.09 174.94 499.22 166.44 500.51 159.33
  Q 501.61 153.33 504.07 147.92
  Q 508.72 137.71 515.45 126.64
  Q 515.98 125.76 514.97 125.95
  Q 513.86 126.16 512.73 126.16
  C 508.25 126.15 508.65 116.55 513.48 115.84
  Q 518.11 115.16 522.00 114.48
  Q 522.52 114.39 522.80 113.94
  C 528.24 105.19 534.47 96.06 541.61 89.17
  C 545.06 85.83 547.88 84.46 552.34 87.40
  C 555.55 89.50 555.64 92.25 553.39 94.86
  Q 545.65 103.90 539.43 112.53
  Q 538.91 113.25 539.79 113.14
  Z"
/>
<path fill="#ffffff" d="
  M 452.4324 174.9046
  A 30.83 21.12 133.9 0 1 458.5920 138.0454
  A 30.83 21.12 133.9 0 1 495.1876 130.4754
  A 30.83 21.12 133.9 0 1 489.0280 167.3346
  A 30.83 21.12 133.9 0 1 452.4324 174.9046
  Z
  M 463.9305 165.7440
  A 16.66 9.22 126.2 0 0 481.2102 157.7454
  A 16.66 9.22 126.2 0 0 483.6095 138.8560
  A 16.66 9.22 126.2 0 0 466.3298 146.8546
  A 16.66 9.22 126.2 0 0 463.9305 165.7440
  Z"
/>
</svg>
