<svg width="461" height="11" viewBox="0 0 461 11" fill="none" xmlns="http://www.w3.org/2000/svg">
<g clip-path="url(#clip0_110_142)">
<path d="M8.35351 3.4879C8.10542 3.06158 7.77512 2.69967 7.44481 2.34237C7.06166 1.91758 6.61979 1.53267 6.09131 1.32412C5.2516 0.939207 4.32823 1.17383 3.51788 1.53114C2.45211 1.92985 1.40248 2.623 0.882802 3.70872C0.379274 5.10115 0.39689 6.59325 1.21164 7.75871C1.49496 8.37825 2.11446 8.90271 2.63854 9.18488C3.44595 9.59279 4.33263 9.91943 5.23399 9.95316C6.27775 9.93936 7.32591 9.47471 8.02027 8.65428C8.53114 7.97187 8.81153 7.12538 9.00531 6.29115C9.19028 5.3051 8.84236 4.31906 8.35058 3.48636L8.35351 3.4879ZM6.7754 7.62683C6.30417 8.03168 6.4495 7.89826 6.03552 8.10682C5.59218 8.2525 5.80651 8.22797 5.19729 8.27397C4.1873 8.14362 3.89369 7.90593 2.75745 7.37074C2.4477 7.23885 2.18493 7.18058 1.94417 7.12384C1.98821 6.82327 2.03226 6.52117 2.08804 6.22214C2.16584 5.66701 2.18052 5.09961 2.31118 4.55522C2.33907 4.46781 2.3743 4.38193 2.41541 4.30066C2.41981 4.29299 2.42421 4.28839 2.43009 4.27919C2.81324 3.8038 2.6635 3.94641 3.32557 3.45569C3.70726 3.25634 4.10802 3.09685 4.50292 2.92663C4.6321 2.87449 4.76423 2.83155 4.89781 2.79475C4.94185 2.78555 4.98589 2.77788 5.0314 2.77175C5.09012 2.76408 5.14884 2.75948 5.20756 2.75641C5.23546 2.75948 5.27069 2.76561 5.31326 2.77175C5.35143 2.77942 5.38079 2.78708 5.40721 2.79322C5.51731 2.83002 5.62448 2.87296 5.72724 2.9297C6.335 3.33301 7.51528 4.63343 7.50941 5.76362C7.50353 5.83723 7.49473 5.94151 7.48005 6.01205C7.38316 6.45983 7.13653 7.19132 6.77246 7.62683H6.7754Z" fill="white"/>
<path d="M29.5691 5.44775C29.0157 3.80383 27.5932 2.72271 26.1868 1.90688C25.3222 1.42229 24.1316 1.2122 23.3418 1.95595C22.577 2.70124 21.8767 3.59834 21.5846 4.66413C21.451 5.21619 21.545 5.82192 21.7696 6.33565C22.0001 6.81257 22.3465 7.21588 22.6827 7.61613C23.1583 8.19426 23.8086 8.55003 24.506 8.72485C24.8495 9.65569 26.0826 9.76457 26.9017 9.45787C28.5503 8.91194 30.2018 7.42444 29.5691 5.44928V5.44775ZM27.3245 7.39684C26.9531 7.67593 26.9487 7.61766 26.2162 7.9305C25.7523 8.12219 25.56 8.29394 25.3134 8.39975C24.7188 7.40757 23.9055 6.57334 23.2552 5.62257C23.2244 5.54589 23.198 5.46615 23.1774 5.38641C23.1657 5.31433 23.1568 5.24073 23.1539 5.16865C23.1583 5.13338 23.1657 5.08277 23.1774 5.02143C23.1774 5.0199 23.1774 5.01837 23.1774 5.01683C23.217 4.87728 23.3903 4.55371 23.4534 4.43563C23.7925 3.8621 24.2388 3.37598 24.4619 3.19963C24.4766 3.19349 24.4927 3.18889 24.5074 3.18429C24.5764 3.17356 24.6454 3.16742 24.7144 3.16589C24.7408 3.16896 24.7746 3.17202 24.8216 3.17816C25.4088 3.31771 26.4085 3.88971 27.373 4.80674C27.5946 5.05517 27.7708 5.34194 27.9323 5.63637C27.9543 5.67777 27.9675 5.70231 27.9778 5.72071C28.0248 5.83573 28.0703 5.97988 28.0938 6.05808C28.1114 6.16696 28.1173 6.27738 28.1187 6.38626C28.1158 6.43533 28.1085 6.4844 28.0996 6.53347C28.082 6.58101 28.0629 6.62702 28.0409 6.67302C27.6636 7.18061 27.8941 6.92912 27.3245 7.3953V7.39684Z" fill="white"/>
<path d="M49.9247 4.6503C49.6062 3.91728 49.2436 3.18733 48.7063 2.6C48.3437 2.20129 48.009 1.76884 47.5789 1.44527C46.6129 0.690784 45.1669 0.400951 44.2245 1.34713C43.5374 1.99733 42.8886 2.73342 42.5685 3.65812C42.3748 4.18718 42.3395 4.75304 42.3058 5.31431C42.2823 5.76976 42.2603 6.22981 42.2823 6.6868C42.1164 7.31554 42.1076 8.01635 42.4687 8.57454C42.7491 9.0438 43.2159 9.31063 43.6886 9.53759C43.762 9.60506 43.8369 9.67254 43.9118 9.73694C43.9176 9.70781 43.9206 9.67867 43.9264 9.65107C43.9617 9.66794 43.9984 9.6848 44.0336 9.70167C45.1111 10.1602 46.2782 10.3887 47.4423 10.3166C48.9647 10.1924 50.4136 8.92112 50.5677 7.2956C50.5971 6.37703 50.2389 5.49373 49.9262 4.6503H49.9247ZM46.6364 8.67729C45.4091 8.50707 45.1713 8.43806 44.0454 7.8584C44.016 7.84306 43.991 7.82773 43.9646 7.81393C43.9646 7.79859 43.9632 7.78326 43.9617 7.76792C43.9382 6.24821 43.8149 5.84337 44.0468 4.41261C44.0468 4.41107 44.0468 4.40954 44.0468 4.40801C44.1055 4.22552 44.179 4.04916 44.2641 3.87895C44.2905 3.82681 44.3184 3.7762 44.3463 3.72559C44.3536 3.71333 44.3595 3.70259 44.3683 3.68879C44.9408 2.92664 45.0363 2.83616 45.5104 2.47272C45.5222 2.46812 45.5325 2.46352 45.5442 2.45892C45.597 2.45125 45.6514 2.44818 45.7042 2.44665C45.7439 2.44972 45.7982 2.45585 45.8554 2.46505C45.9039 2.47272 45.9508 2.48345 45.9978 2.49419C46.1608 2.55093 46.3164 2.62454 46.4661 2.71195C46.8566 2.97571 47.1752 3.33608 47.4952 3.68726C47.4453 3.63358 47.3954 3.57838 47.3469 3.52471C47.7022 3.89581 48.0002 4.32213 48.2409 4.78218C48.4832 5.26064 48.6755 5.76363 48.8443 6.27582C48.9984 6.75581 48.9779 6.7374 49.0058 6.85548C49.0249 6.95516 49.0366 7.05484 49.0395 7.15605C49.0322 7.21279 49.0205 7.27413 49.0102 7.3232C48.6358 8.45646 47.7183 8.80304 46.6335 8.67729H46.6364Z" fill="white"/>
<path d="M73.4186 6.28042C73.2836 5.32811 72.9371 4.40034 72.4262 3.59831C71.9007 2.81162 71.0889 2.3117 70.3079 1.83785C69.1276 1.14623 67.6347 0.799662 66.4235 1.60322C64.9394 2.42365 63.8677 3.88815 63.2233 5.48299C62.8739 6.43377 63.0647 7.47809 63.3701 8.41199C63.4978 8.26171 63.6138 8.10222 63.7239 7.93967C63.8971 8.10836 64.0894 8.26018 64.2744 8.40586C65.1141 9.0438 66.058 9.53912 67.0651 9.81362C67.6332 9.98997 68.2248 9.96237 68.8017 9.85042C69.4697 9.75534 70.142 9.66027 70.7894 9.45631C71.541 9.19255 72.3514 8.90885 72.8916 8.27398C73.263 7.69124 73.4641 6.98276 73.4216 6.28042H73.4186ZM70.3857 7.84306C70.2683 7.8814 70.1494 7.91514 70.0304 7.94581C70.0128 7.95041 69.9952 7.95347 69.9717 7.95807C69.3038 8.08842 68.627 8.19423 67.9503 8.26018C67.1928 8.16663 67.3044 8.14823 66.5263 7.82159C65.7013 7.42748 65.7409 7.42748 64.9174 6.77727C64.7485 6.65766 64.6208 6.57332 64.5181 6.50278C64.706 6.1148 64.888 5.72375 65.0906 5.34804C65.117 5.29897 65.1464 5.2499 65.1728 5.20083C65.2359 5.09348 65.3005 4.9846 65.368 4.87879C65.5926 4.52762 65.8407 4.19331 66.1255 3.89428C66.8155 3.27934 67.1443 3.04778 67.6611 2.8607C68.1793 2.77022 68.031 2.80396 68.376 2.83616C68.4641 2.8515 68.5507 2.87296 68.6358 2.8975C68.7107 2.92357 68.8384 2.96804 68.9206 3.00178C69.6444 3.30695 69.8631 3.45876 70.1772 3.67192C70.4459 3.85748 70.7145 4.0461 70.9494 4.27766C71.3766 4.81285 71.3619 4.87572 71.5293 5.22536C71.6599 5.5612 71.7642 5.90777 71.8537 6.25741C71.8699 6.35096 71.8757 6.4445 71.8772 6.53958C71.8713 6.60859 71.8596 6.72053 71.8434 6.80488C71.7921 6.96283 71.7304 7.11771 71.6585 7.268C71.5851 7.32627 71.5073 7.37687 71.4265 7.42441C71.0962 7.60537 70.738 7.71885 70.3857 7.84306Z" fill="white"/>
<path d="M92.9448 3.50476C92.5983 2.79474 92.293 1.96205 91.5678 1.58941C90.2935 1.05575 88.6376 1.37472 87.4618 2.05713C86.4811 2.72267 86.1875 4.05069 86.1816 5.20235C86.1626 5.69767 86.236 6.18686 86.3901 6.64691C86.3152 6.55644 86.2433 6.45982 86.1728 6.35555C85.5621 7.3922 85.9864 8.69414 87.0316 9.1956C87.8082 9.72466 88.7419 9.82281 89.6462 9.7308C90.8059 9.67866 91.8966 9.16493 92.8376 8.47792C93.4879 7.98106 93.6876 7.07476 93.6935 6.27427C93.6597 5.31123 93.2736 4.39572 92.9462 3.50782L92.9448 3.50476ZM92.1506 6.61318C92.1153 6.74966 92.1403 6.79413 91.9964 7.12997C91.9891 7.13917 91.9818 7.14684 91.9744 7.15604C91.3946 7.58389 91.214 7.67436 90.3024 7.99027C89.6197 8.12061 88.6362 8.09761 88.5995 8.06847C88.5261 8.05467 88.4527 8.03474 88.3807 8.0148C88.187 7.94426 88.0049 7.84765 87.8258 7.7449C87.8346 7.50108 87.8288 7.28792 87.8522 6.96895C87.9036 6.33101 87.817 5.69921 87.8111 5.0628C87.8273 4.7515 87.8728 4.4402 87.9477 4.1381C88.1458 3.64124 88.0724 3.81299 88.2398 3.5707C88.297 3.52316 88.3558 3.47869 88.4189 3.43882C88.7022 3.29927 89.0032 3.20879 89.3056 3.12905C89.6417 3.05391 89.9853 3.00943 90.3288 3.01097C90.3435 3.01097 90.3581 3.0125 90.3758 3.01403C90.48 3.00637 90.7369 3.05851 90.8411 3.07844C90.8484 3.08151 90.8573 3.08304 90.8646 3.08611C90.8763 3.09224 90.8852 3.09684 90.894 3.10144C90.913 3.11678 90.9321 3.13365 90.9512 3.15052C91.076 3.30693 91.1773 3.48022 91.2698 3.65811C91.2786 3.67651 91.2903 3.69798 91.3021 3.72098C91.5281 4.1795 91.3857 3.8452 91.6221 4.41413C91.7997 4.90485 91.9847 5.39557 92.1242 5.90009C92.2034 6.40462 92.1741 6.31721 92.1491 6.61011L92.1506 6.61318Z" fill="white"/>
<path d="M114.11 4.55983C113.824 3.44343 113.266 2.40525 112.582 1.50201C111.759 0.371819 110.173 0.692322 109.116 1.26432C107.675 1.9774 106.926 3.22568 106.467 4.77298C106.144 5.67315 106.233 6.49511 106.558 7.2864C106.493 7.25113 106.427 7.21586 106.362 7.18059C106.235 7.12998 106.136 7.0073 106.16 7.17599C106.154 7.63297 106.198 8.10683 106.383 8.52548C107.068 10.0038 109.339 10.5252 110.777 10.2752C112.866 9.9317 114.122 8.12983 114.319 6.00746C114.369 5.5106 114.229 5.03368 114.11 4.55829V4.55983ZM112.811 6.17308C112.7 6.7098 112.788 6.39543 112.562 7.01957C112.296 7.62684 112.46 7.33547 112.143 7.76792C111.807 8.1329 111.976 8.02402 111.464 8.37826C111.348 8.43347 111.229 8.47794 111.108 8.51781C111.029 8.54848 110.849 8.59908 110.737 8.62975C109.913 8.79844 109.314 8.62515 108.824 8.4626C108.294 8.22031 107.779 7.94888 107.265 7.67131C107.397 7.33701 107.497 6.99044 107.581 6.63926C107.716 6.22215 107.87 5.8127 107.979 5.38639L107.92 5.59494C108.299 4.46628 108.412 4.0139 108.977 3.39129C109.585 2.84843 109.74 2.77789 110.206 2.56933C110.78 2.37765 110.389 2.46046 111.016 2.38378C111.05 2.38378 111.076 2.38225 111.097 2.38071C111.148 2.38531 111.198 2.39145 111.248 2.40218C111.254 2.40525 111.26 2.40832 111.267 2.41138C111.675 2.79629 112.292 3.80534 112.584 4.67331C112.871 5.75443 112.892 5.42933 112.811 6.17154V6.17308Z" fill="white"/>
<path d="M202.551 4.55983C202.264 3.44343 201.707 2.40525 201.022 1.50201C200.199 0.371819 198.613 0.692322 197.556 1.26432C196.115 1.9774 195.366 3.22568 194.907 4.77298C194.584 5.67315 194.673 6.49511 194.998 7.2864C194.933 7.25113 194.867 7.21586 194.803 7.18059C194.675 7.12998 194.576 7.0073 194.6 7.17599C194.594 7.63297 194.638 8.10683 194.823 8.52548C195.509 10.0038 197.78 10.5252 199.217 10.2752C201.306 9.9317 202.562 8.12983 202.759 6.00746C202.809 5.5106 202.67 5.03368 202.551 4.55829V4.55983ZM201.251 6.17308C201.14 6.7098 201.228 6.39543 201.002 7.01957C200.736 7.62684 200.901 7.33547 200.584 7.76792C200.247 8.1329 200.416 8.02402 199.904 8.37826C199.788 8.43347 199.669 8.47794 199.549 8.51781C199.469 8.54848 199.289 8.59908 199.177 8.62975C198.354 8.79844 197.755 8.62515 197.264 8.4626C196.734 8.22031 196.219 7.94888 195.705 7.67131C195.837 7.33701 195.937 6.99044 196.021 6.63926C196.156 6.22215 196.31 5.8127 196.419 5.38639L196.36 5.59494C196.739 4.46628 196.852 4.0139 197.417 3.39129C198.025 2.84843 198.18 2.77789 198.646 2.56933C199.22 2.37765 198.829 2.46046 199.456 2.38378C199.49 2.38378 199.516 2.38225 199.537 2.38071C199.588 2.38531 199.638 2.39145 199.688 2.40218C199.694 2.40525 199.7 2.40832 199.707 2.41138C200.115 2.79629 200.732 3.80534 201.024 4.67331C201.312 5.75443 201.332 5.42933 201.251 6.17154V6.17308Z" fill="white"/>
<path d="M138.198 3.1889C137.785 2.25193 136.951 1.62779 136.109 1.1432C135.317 0.684685 134.412 0.410187 133.507 0.601875C131.318 0.96685 129.052 1.89309 127.701 3.81304C126.891 4.75461 126.684 6.04123 126.844 7.26496C127.419 6.82331 127.873 6.30039 128.28 5.779C128.148 6.3694 128.224 6.99967 128.438 7.56247C128.697 8.23567 129.203 8.7678 129.73 9.22479C130.358 9.68944 131.094 9.98387 131.831 10.2032C133.547 10.6249 135.762 10.8534 137.215 9.61276C137.829 9.0561 138.18 8.26634 138.507 7.50419C139.07 6.1133 138.857 4.50005 138.198 3.18584V3.1889ZM137.365 5.81887C137.296 6.62549 137.318 6.443 137.039 7.15455C136.68 7.84003 136.81 7.75109 136.244 8.39363C135.677 8.85981 134.222 9.13738 132.198 8.58531C131.727 8.42736 131.267 8.22034 130.828 7.97958C130.662 7.85997 130.508 7.72042 130.366 7.57167C129.958 7.09014 129.574 6.58255 129.09 6.18077C128.87 5.98295 128.639 5.79586 128.435 5.57964C129.09 4.71934 129.645 3.88818 130.441 3.45267C131.342 2.86533 133.633 1.99123 134.588 2.23199C134.614 2.23966 134.635 2.2458 134.651 2.2504C134.723 2.27493 134.795 2.30254 134.865 2.33167C135.148 2.45435 135.429 2.5893 135.696 2.74879C136.012 2.95581 136.316 3.1843 136.581 3.45573C137.163 4.16881 137.389 5.38642 137.367 5.8204L137.365 5.81887Z" fill="white"/>
<path d="M159.413 2.56166C158.745 1.76117 157.841 1.19224 156.822 1.06649C156.402 0.997481 155.965 0.940741 155.544 1.02048C155.113 1.09563 154.729 1.31185 154.36 1.54494C153.048 2.41597 151.918 3.83447 151.439 5.38791C151.31 5.83263 151.305 6.28655 151.382 6.7282C151.367 6.77267 151.35 6.81714 151.339 6.86161C151.203 7.46735 151.42 8.11755 151.799 8.58221C152.285 9.18641 152.967 9.54985 153.691 9.74001C154.31 9.93476 154.951 10.0942 155.601 10.0973C156.721 10.1019 157.8 9.6986 158.762 9.1174C159.537 8.73556 160.037 7.97801 160.401 7.19438C160.63 6.65306 160.834 6.07339 160.827 5.47532C160.757 4.34666 160.127 3.37288 159.413 2.56166ZM158.8 6.80027C158.785 6.82634 158.773 6.84628 158.763 6.86315C158.66 7.03183 158.55 7.19592 158.422 7.34467C157.785 7.85226 157.9 7.71118 157.186 8.06081C156.571 8.31691 156.67 8.26937 156.35 8.33685C155.488 8.44419 155.68 8.46259 154.901 8.32611C154.156 8.13289 154.214 8.21263 153.438 7.84306C153.007 7.47808 152.697 7.26492 152.439 7.01496C152.47 6.93829 152.5 6.86161 152.531 6.7834C152.838 6.19914 153.074 5.57807 153.389 4.99993C153.688 4.50001 154.037 4.03229 154.438 3.61824C154.68 3.38668 154.94 3.17659 155.218 2.99257C155.296 2.94043 155.376 2.88983 155.457 2.84229C155.511 2.81469 155.566 2.78708 155.621 2.76408C155.677 2.73954 155.736 2.71961 155.793 2.70121C155.825 2.69661 155.865 2.69047 155.914 2.68587C155.966 2.68281 156.012 2.68127 156.046 2.68127C156.116 2.68587 156.188 2.69354 156.259 2.70274C157.054 2.84382 156.918 2.76715 157.455 3.03091C158.18 3.57071 158.096 3.53697 158.604 4.18257C159.124 4.87112 159.152 5.10728 159.231 5.57193C159.196 5.77896 159.243 5.89397 158.798 6.80027H158.8Z" fill="white"/>
<path d="M180.983 2.10774C179.973 0.635571 178.202 0.170918 176.648 0.972943C175.992 1.30265 175.531 1.91758 175.076 2.49265C173.953 4.01695 173.402 5.24069 173.844 7.08243C173.659 7.01803 173.48 6.93675 173.305 6.84321C173.232 7.42594 173.487 7.98107 173.829 8.42732C174.165 8.86897 174.597 9.19561 175.061 9.47317C175.879 10.0176 176.808 10.4608 177.791 10.4945C179.063 10.5374 180.215 9.7032 180.995 8.71102C181.714 7.68664 182.088 6.39389 182.132 5.13028C182.153 4.01082 181.624 2.97264 180.983 2.10774ZM180.321 6.57331C179.91 7.69124 179.776 7.81545 179.079 8.40585C178.637 8.71409 178.696 8.66041 178.475 8.76469C178.18 8.85364 178.313 8.8613 177.822 8.88584C177.27 8.81223 177.446 8.8245 177.098 8.71409C176.798 8.60674 176.51 8.46412 176.238 8.29391C175.879 8.06388 175.532 7.80778 175.159 7.60076C174.841 7.41981 174.496 7.30173 174.151 7.18825C174.413 6.87848 174.638 6.53957 174.838 6.18073C175.12 5.71761 175.385 5.24376 175.608 4.7469C175.842 4.25311 176.293 3.5753 176.99 2.78862C177.285 2.41291 178.26 2.0878 178.938 2.43437C179.574 2.6552 180.39 4.06296 180.516 4.52915C180.701 5.36337 180.478 6.01358 180.322 6.57484L180.321 6.57331Z" fill="white"/>
<path d="M224.662 3.4879C224.414 3.06159 224.084 2.69968 223.753 2.34237C223.37 1.91759 222.928 1.53268 222.4 1.32413C221.56 0.939215 220.637 1.17384 219.827 1.53115C218.761 1.92986 217.711 2.62301 217.191 3.70873C216.688 5.10115 216.706 6.59326 217.52 7.75872C217.804 8.37826 218.423 8.90272 218.947 9.18488C219.755 9.5928 220.641 9.91943 221.543 9.95317C222.586 9.93937 223.635 9.47472 224.329 8.65429C224.84 7.97188 225.12 7.12538 225.314 6.29115C225.499 5.30511 225.151 4.31906 224.659 3.48637L224.662 3.4879ZM223.084 7.62684C222.613 8.03169 222.758 7.89827 222.344 8.10683C221.901 8.25251 222.115 8.22797 221.506 8.27398C220.496 8.14363 220.202 7.90594 219.066 7.37074C218.756 7.23886 218.494 7.18059 218.253 7.12385C218.297 6.82328 218.341 6.52118 218.397 6.22215C218.474 5.66702 218.489 5.09962 218.62 4.55522C218.648 4.46781 218.683 4.38194 218.724 4.30066C218.728 4.293 218.733 4.28839 218.739 4.27919C219.122 3.80381 218.972 3.94642 219.634 3.4557C220.016 3.25634 220.417 3.09686 220.812 2.92664C220.941 2.8745 221.073 2.83156 221.206 2.79476C221.251 2.78556 221.295 2.77789 221.34 2.77176C221.399 2.76409 221.457 2.75949 221.516 2.75642C221.544 2.75949 221.579 2.76562 221.622 2.77176C221.66 2.77942 221.689 2.78709 221.716 2.79322C221.826 2.83003 221.933 2.87297 222.036 2.92971C222.644 3.33302 223.824 4.63343 223.818 5.76363C223.812 5.83724 223.803 5.94152 223.789 6.01206C223.692 6.45984 223.445 7.19132 223.081 7.62684H223.084Z" fill="white"/>
<path d="M245.88 5.44775C245.326 3.80383 243.904 2.72271 242.497 1.90688C241.633 1.42229 240.442 1.2122 239.652 1.95595C238.887 2.70124 238.187 3.59834 237.895 4.66413C237.761 5.21619 237.855 5.82192 238.08 6.33565C238.31 6.81257 238.657 7.21588 238.993 7.61613C239.469 8.19426 240.119 8.55003 240.816 8.72485C241.16 9.65569 242.393 9.76457 243.212 9.45787C244.861 8.91194 246.512 7.42444 245.88 5.44928V5.44775ZM243.635 7.39684C243.264 7.67593 243.259 7.61766 242.527 7.9305C242.063 8.12219 241.87 8.29394 241.624 8.39975C241.029 7.40757 240.216 6.57334 239.566 5.62257C239.535 5.54589 239.508 5.46615 239.488 5.38641C239.476 5.31433 239.467 5.24073 239.464 5.16865C239.469 5.13338 239.476 5.08277 239.488 5.02143C239.488 5.0199 239.488 5.01837 239.488 5.01683C239.527 4.87728 239.701 4.55371 239.764 4.43563C240.103 3.8621 240.549 3.37598 240.772 3.19963C240.787 3.19349 240.803 3.18889 240.818 3.18429C240.887 3.17356 240.956 3.16742 241.025 3.16589C241.051 3.16896 241.085 3.17202 241.132 3.17816C241.719 3.31771 242.719 3.88971 243.683 4.80674C243.905 5.05517 244.081 5.34194 244.243 5.63637C244.265 5.67777 244.278 5.70231 244.288 5.72071C244.335 5.83573 244.381 5.97988 244.404 6.05808C244.422 6.16696 244.428 6.27738 244.429 6.38626C244.426 6.43533 244.419 6.4844 244.41 6.53347C244.392 6.58101 244.373 6.62702 244.351 6.67302C243.974 7.18061 244.205 6.92912 243.635 7.3953V7.39684Z" fill="white"/>
<path d="M266.233 4.6503C265.915 3.91728 265.552 3.18733 265.015 2.6C264.652 2.20129 264.318 1.76884 263.888 1.44527C262.922 0.690784 261.476 0.400951 260.533 1.34713C259.846 1.99733 259.197 2.73342 258.877 3.65812C258.683 4.18718 258.648 4.75304 258.614 5.31431C258.591 5.76976 258.569 6.22981 258.591 6.6868C258.425 7.31554 258.416 8.01635 258.777 8.57454C259.058 9.0438 259.525 9.31063 259.997 9.53759C260.071 9.60506 260.146 9.67254 260.22 9.73694C260.226 9.70781 260.229 9.67867 260.235 9.65107C260.27 9.66794 260.307 9.6848 260.342 9.70167C261.42 10.1602 262.587 10.3887 263.751 10.3166C265.273 10.1924 266.722 8.92112 266.876 7.2956C266.906 6.37703 266.548 5.49373 266.235 4.6503H266.233ZM262.945 8.67729C261.718 8.50707 261.48 8.43806 260.354 7.8584C260.325 7.84306 260.3 7.82773 260.273 7.81393C260.273 7.79859 260.272 7.78326 260.27 7.76792C260.247 6.24821 260.124 5.84337 260.356 4.41261C260.356 4.41107 260.356 4.40954 260.356 4.40801C260.414 4.22552 260.488 4.04916 260.573 3.87895C260.599 3.82681 260.627 3.7762 260.655 3.72559C260.662 3.71333 260.668 3.70259 260.677 3.68879C261.25 2.92664 261.345 2.83616 261.819 2.47272C261.831 2.46812 261.841 2.46352 261.853 2.45892C261.906 2.45125 261.96 2.44818 262.013 2.44665C262.053 2.44972 262.107 2.45585 262.164 2.46505C262.213 2.47272 262.26 2.48345 262.307 2.49419C262.469 2.55093 262.625 2.62454 262.775 2.71195C263.165 2.97571 263.484 3.33608 263.804 3.68726C263.754 3.63358 263.704 3.57838 263.656 3.52471C264.011 3.89581 264.309 4.32213 264.55 4.78218C264.792 5.26064 264.984 5.76363 265.153 6.27582C265.307 6.75581 265.287 6.7374 265.314 6.85548C265.334 6.95516 265.345 7.05484 265.348 7.15605C265.341 7.21279 265.329 7.27413 265.319 7.3232C264.945 8.45646 264.027 8.80304 262.942 8.67729H262.945Z" fill="white"/>
<path d="M289.727 6.28042C289.592 5.32811 289.246 4.40034 288.735 3.59831C288.209 2.81162 287.398 2.3117 286.617 1.83785C285.436 1.14623 283.943 0.799662 282.732 1.60322C281.248 2.42365 280.176 3.88815 279.532 5.48299C279.183 6.43377 279.373 7.47809 279.679 8.41199C279.807 8.26171 279.922 8.10222 280.033 7.93967C280.206 8.10836 280.398 8.26018 280.583 8.40586C281.423 9.0438 282.367 9.53912 283.374 9.81362C283.942 9.98997 284.534 9.96237 285.11 9.85042C285.778 9.75534 286.451 9.66027 287.098 9.45631C287.85 9.19255 288.66 8.90885 289.2 8.27398C289.572 7.69124 289.773 6.98276 289.73 6.28042H289.727ZM286.694 7.84306C286.577 7.8814 286.458 7.91514 286.339 7.94581C286.322 7.95041 286.304 7.95347 286.28 7.95807C285.613 8.08842 284.936 8.19423 284.259 8.26018C283.502 8.16663 283.613 8.14823 282.835 7.82159C282.01 7.42748 282.05 7.42748 281.226 6.77727C281.057 6.65766 280.93 6.57332 280.827 6.50278C281.015 6.1148 281.197 5.72375 281.399 5.34804C281.426 5.29897 281.455 5.2499 281.482 5.20083C281.545 5.09348 281.609 4.9846 281.677 4.87879C281.901 4.52762 282.149 4.19331 282.434 3.89428C283.124 3.27934 283.453 3.04778 283.97 2.8607C284.488 2.77022 284.34 2.80396 284.685 2.83616C284.773 2.8515 284.859 2.87296 284.945 2.8975C285.019 2.92357 285.147 2.96804 285.229 3.00178C285.953 3.30695 286.172 3.45876 286.486 3.67192C286.755 3.85748 287.023 4.0461 287.258 4.27766C287.685 4.81285 287.671 4.87572 287.838 5.22536C287.969 5.5612 288.073 5.90777 288.162 6.25741C288.179 6.35096 288.184 6.4445 288.186 6.53958C288.18 6.60859 288.168 6.72053 288.152 6.80488C288.101 6.96283 288.039 7.11771 287.967 7.268C287.894 7.32627 287.816 7.37687 287.735 7.42441C287.405 7.60537 287.047 7.71885 286.694 7.84306Z" fill="white"/>
<path d="M309.253 3.50476C308.907 2.79475 308.602 1.96206 307.876 1.58941C306.602 1.05575 304.946 1.37472 303.77 2.05713C302.79 2.72268 302.496 4.05069 302.49 5.20236C302.471 5.69768 302.545 6.18687 302.699 6.64692C302.624 6.55644 302.552 6.45983 302.481 6.35555C301.871 7.3922 302.295 8.69415 303.34 9.19561C304.117 9.72467 305.05 9.82281 305.955 9.7308C307.114 9.67866 308.205 9.16494 309.146 8.47793C309.797 7.98107 309.996 7.07477 310.002 6.27428C309.968 5.31124 309.582 4.39573 309.255 3.50783L309.253 3.50476ZM308.459 6.61318C308.424 6.74967 308.449 6.79414 308.305 7.12998C308.298 7.13918 308.29 7.14684 308.283 7.15604C307.703 7.58389 307.523 7.67437 306.611 7.99027C305.928 8.12062 304.945 8.09762 304.908 8.06848C304.835 8.05468 304.761 8.03474 304.689 8.01481C304.496 7.94427 304.314 7.84766 304.134 7.74491C304.143 7.50108 304.137 7.28793 304.161 6.96896C304.212 6.33102 304.126 5.69921 304.12 5.06281C304.136 4.75151 304.181 4.4402 304.256 4.1381C304.454 3.64125 304.381 3.813 304.548 3.57071C304.606 3.52317 304.664 3.47869 304.727 3.43882C305.011 3.29927 305.312 3.2088 305.614 3.12905C305.95 3.05391 306.294 3.00944 306.637 3.01098C306.652 3.01098 306.667 3.01251 306.684 3.01404C306.789 3.00637 307.045 3.05851 307.15 3.07845C307.157 3.08152 307.166 3.08305 307.173 3.08612C307.185 3.09225 307.194 3.09685 307.203 3.10145C307.222 3.11679 307.241 3.13366 307.26 3.15052C307.385 3.30694 307.486 3.48023 307.578 3.65812C307.587 3.67652 307.599 3.69799 307.611 3.72099C307.837 4.17951 307.694 3.8452 307.931 4.41413C308.108 4.90486 308.293 5.39558 308.433 5.9001C308.512 6.40463 308.483 6.31722 308.458 6.61012L308.459 6.61318Z" fill="white"/>
<path d="M330.419 4.55982C330.133 3.44343 329.575 2.40524 328.891 1.50201C328.067 0.371811 326.482 0.692314 325.425 1.26431C323.983 1.97739 323.235 3.22567 322.775 4.77298C322.452 5.67315 322.542 6.49511 322.866 7.28639C322.802 7.25112 322.736 7.21585 322.671 7.18058C322.543 7.12998 322.445 7.0073 322.468 7.17598C322.462 7.63297 322.506 8.10682 322.691 8.52547C323.377 10.0038 325.648 10.5252 327.085 10.2752C329.174 9.93169 330.431 8.12982 330.628 6.00745C330.677 5.51059 330.538 5.03367 330.419 4.55829V4.55982ZM329.12 6.17307C329.008 6.7098 329.096 6.39543 328.87 7.01956C328.605 7.62683 328.769 7.33547 328.452 7.76792C328.116 8.13289 328.285 8.02401 327.772 8.37825C327.656 8.43346 327.537 8.47793 327.417 8.5178C327.338 8.54847 327.157 8.59908 327.046 8.62975C326.222 8.79843 325.623 8.62515 325.133 8.46259C324.603 8.2203 324.088 7.94887 323.574 7.6713C323.706 7.337 323.806 6.99043 323.889 6.63925C324.024 6.22214 324.179 5.81269 324.287 5.38638L324.228 5.59494C324.607 4.46627 324.72 4.01389 325.285 3.39129C325.893 2.84842 326.049 2.77788 326.514 2.56933C327.088 2.37764 326.698 2.46045 327.325 2.38377C327.358 2.38377 327.385 2.38224 327.405 2.38071C327.457 2.38531 327.507 2.39144 327.556 2.40217C327.562 2.40524 327.568 2.40831 327.576 2.41138C327.984 2.79629 328.6 3.80533 328.892 4.6733C329.18 5.75442 329.201 5.42932 329.12 6.17154V6.17307Z" fill="white"/>
<path d="M418.861 4.55983C418.575 3.44343 418.017 2.40525 417.333 1.50201C416.509 0.371819 414.924 0.692322 413.867 1.26432C412.425 1.9774 411.677 3.22568 411.217 4.77298C410.894 5.67315 410.984 6.49511 411.308 7.2864C411.244 7.25113 411.178 7.21586 411.113 7.18059C410.985 7.12998 410.887 7.0073 410.91 7.17599C410.904 7.63297 410.949 8.10683 411.133 8.52548C411.819 10.0038 414.09 10.5252 415.527 10.2752C417.616 9.9317 418.873 8.12983 419.07 6.00746C419.119 5.5106 418.98 5.03368 418.861 4.55829V4.55983ZM417.562 6.17308C417.45 6.7098 417.538 6.39543 417.312 7.01957C417.047 7.62684 417.211 7.33547 416.894 7.76792C416.558 8.1329 416.727 8.02402 416.214 8.37826C416.098 8.43347 415.979 8.47794 415.859 8.51781C415.78 8.54848 415.599 8.59908 415.488 8.62975C414.664 8.79844 414.065 8.62515 413.575 8.4626C413.045 8.22031 412.53 7.94888 412.016 7.67131C412.148 7.33701 412.248 6.99044 412.331 6.63926C412.466 6.22215 412.621 5.8127 412.729 5.38639L412.67 5.59494C413.049 4.46628 413.162 4.0139 413.727 3.39129C414.335 2.84843 414.491 2.77789 414.956 2.56933C415.53 2.37765 415.14 2.46046 415.767 2.38378C415.8 2.38378 415.827 2.38225 415.847 2.38071C415.899 2.38531 415.949 2.39145 415.998 2.40218C416.004 2.40525 416.01 2.40832 416.018 2.41138C416.426 2.79629 417.042 3.80534 417.334 4.67331C417.622 5.75443 417.643 5.42933 417.562 6.17154V6.17308Z" fill="white"/>
<path d="M354.508 3.1889C354.095 2.25193 353.262 1.62779 352.419 1.1432C351.628 0.684685 350.722 0.410187 349.818 0.601875C347.629 0.96685 345.362 1.89309 344.012 3.81304C343.201 4.75461 342.994 6.04123 343.154 7.26496C343.73 6.82331 344.183 6.30039 344.59 5.779C344.458 6.3694 344.534 6.99967 344.749 7.56247C345.007 8.23567 345.513 8.7678 346.04 9.22479C346.669 9.68944 347.404 9.98387 348.141 10.2032C349.857 10.6249 352.073 10.8534 353.526 9.61276C354.139 9.0561 354.49 8.26634 354.818 7.50419C355.38 6.1133 355.167 4.50005 354.508 3.18584V3.1889ZM353.676 5.81887C353.607 6.62549 353.629 6.443 353.35 7.15455C352.99 7.84003 353.121 7.75109 352.554 8.39363C351.987 8.85981 350.533 9.13738 348.508 8.58531C348.037 8.42736 347.577 8.22034 347.139 7.97958C346.973 7.85997 346.819 7.72042 346.676 7.57167C346.268 7.09014 345.885 6.58255 345.4 6.18077C345.18 5.98295 344.95 5.79586 344.746 5.57964C345.4 4.71934 345.955 3.88818 346.751 3.45267C347.652 2.86533 349.944 1.99123 350.898 2.23199C350.925 2.23966 350.945 2.2458 350.961 2.2504C351.033 2.27493 351.105 2.30254 351.176 2.33167C351.459 2.45435 351.739 2.5893 352.006 2.74879C352.322 2.95581 352.626 3.1843 352.892 3.45573C353.473 4.16881 353.699 5.38642 353.677 5.8204L353.676 5.81887Z" fill="white"/>
<path d="M375.724 2.56166C375.056 1.76117 374.151 1.19224 373.133 1.06649C372.713 0.997481 372.275 0.940741 371.854 1.02048C371.424 1.09563 371.039 1.31185 370.671 1.54494C369.358 2.41597 368.228 3.83447 367.749 5.38791C367.62 5.83263 367.616 6.28655 367.692 6.7282C367.677 6.77267 367.66 6.81714 367.65 6.86161C367.513 7.46735 367.73 8.11755 368.109 8.58221C368.595 9.18641 369.278 9.54985 370.001 9.74001C370.621 9.93476 371.261 10.0942 371.911 10.0973C373.031 10.1019 374.11 9.6986 375.072 9.1174C375.847 8.73556 376.348 7.97801 376.712 7.19438C376.941 6.65306 377.145 6.07339 377.137 5.47532C377.067 4.34666 376.437 3.37288 375.724 2.56166ZM375.11 6.80027C375.095 6.82634 375.084 6.84628 375.073 6.86315C374.971 7.03183 374.86 7.19592 374.733 7.34467C374.096 7.85226 374.21 7.71118 373.497 8.06081C372.882 8.31691 372.98 8.26937 372.66 8.33685C371.798 8.44419 371.99 8.46259 371.211 8.32611C370.467 8.13289 370.524 8.21263 369.749 7.84306C369.317 7.47808 369.007 7.26492 368.749 7.01496C368.78 6.93829 368.811 6.86161 368.842 6.7834C369.148 6.19914 369.385 5.57807 369.699 4.99993C369.998 4.50001 370.348 4.03229 370.749 3.61824C370.991 3.38668 371.251 3.17659 371.528 2.99257C371.606 2.94043 371.687 2.88983 371.767 2.84229C371.822 2.81469 371.876 2.78708 371.932 2.76408C371.988 2.73954 372.046 2.71961 372.103 2.70121C372.136 2.69661 372.175 2.69047 372.224 2.68587C372.277 2.68281 372.322 2.68127 372.356 2.68127C372.426 2.68587 372.498 2.69354 372.569 2.70274C373.365 2.84382 373.228 2.76715 373.765 3.03091C374.49 3.57071 374.407 3.53697 374.915 4.18257C375.434 4.87112 375.462 5.10728 375.542 5.57193C375.506 5.77896 375.553 5.89397 375.109 6.80027H375.11Z" fill="white"/>
<path d="M397.291 2.10774C396.281 0.635571 394.511 0.170918 392.956 0.972943C392.3 1.30265 391.839 1.91758 391.384 2.49265C390.261 4.01695 389.711 5.24069 390.152 7.08243C389.968 7.01803 389.788 6.93675 389.614 6.84321C389.54 7.42594 389.796 7.98107 390.138 8.42732C390.474 8.86897 390.906 9.19561 391.369 9.47317C392.187 10.0176 393.116 10.4608 394.1 10.4945C395.371 10.5374 396.524 9.7032 397.303 8.71102C398.022 7.68664 398.397 6.39389 398.441 5.13028C398.461 4.01082 397.933 2.97264 397.291 2.10774ZM396.629 6.57331C396.218 7.69124 396.085 7.81545 395.387 8.40585C394.946 8.71409 395.004 8.66041 394.784 8.76469C394.489 8.85364 394.621 8.8613 394.131 8.88584C393.579 8.81223 393.755 8.8245 393.407 8.71409C393.106 8.60674 392.818 8.46412 392.547 8.29391C392.187 8.06388 391.841 7.80778 391.468 7.60076C391.149 7.41981 390.804 7.30173 390.459 7.18825C390.722 6.87848 390.947 6.53957 391.146 6.18073C391.428 5.71761 391.694 5.24376 391.917 4.7469C392.15 4.25311 392.601 3.5753 393.298 2.78862C393.593 2.41291 394.568 2.0878 395.246 2.43437C395.882 2.6552 396.698 4.06296 396.825 4.52915C397.01 5.36337 396.786 6.01358 396.631 6.57484L396.629 6.57331Z" fill="white"/>
<path d="M460.325 4.55982C460.039 3.44343 459.481 2.40524 458.797 1.50201C457.973 0.371811 456.388 0.692314 455.331 1.26431C453.889 1.97739 453.14 3.22567 452.681 4.77298C452.358 5.67315 452.448 6.49511 452.772 7.28639C452.707 7.25112 452.641 7.21585 452.577 7.18058C452.449 7.12998 452.351 7.0073 452.374 7.17598C452.368 7.63297 452.412 8.10682 452.597 8.52547C453.283 10.0038 455.554 10.5252 456.991 10.2752C459.08 9.93169 460.337 8.12982 460.533 6.00745C460.583 5.51059 460.444 5.03367 460.325 4.55829V4.55982ZM459.026 6.17307C458.914 6.7098 459.002 6.39543 458.776 7.01956C458.51 7.62683 458.675 7.33547 458.358 7.76792C458.022 8.13289 458.19 8.02401 457.678 8.37825C457.562 8.43346 457.443 8.47793 457.323 8.5178C457.244 8.54847 457.063 8.59908 456.951 8.62975C456.128 8.79843 455.529 8.62515 455.039 8.46259C454.509 8.2203 453.993 7.94887 453.48 7.6713C453.612 7.337 453.712 6.99043 453.795 6.63925C453.93 6.22214 454.084 5.81269 454.193 5.38638L454.134 5.59494C454.513 4.46627 454.626 4.01389 455.191 3.39129C455.799 2.84842 455.955 2.77788 456.42 2.56933C456.994 2.37764 456.604 2.46045 457.23 2.38377C457.264 2.38377 457.291 2.38224 457.311 2.38071C457.362 2.38531 457.412 2.39144 457.462 2.40217C457.468 2.40524 457.474 2.40831 457.481 2.41138C457.89 2.79629 458.506 3.80533 458.798 4.6733C459.086 5.75442 459.106 5.42932 459.026 6.17154V6.17307Z" fill="white"/>
<path d="M438.756 2.10774C437.746 0.635571 435.975 0.170918 434.42 0.972943C433.764 1.30265 433.303 1.91758 432.848 2.49265C431.725 4.01695 431.175 5.24069 431.617 7.08243C431.432 7.01803 431.253 6.93675 431.078 6.84321C431.004 7.42594 431.26 7.98107 431.602 8.42732C431.938 8.86897 432.37 9.19561 432.834 9.47317C433.651 10.0176 434.581 10.4608 435.564 10.4945C436.835 10.5374 437.988 9.7032 438.767 8.71102C439.487 7.68664 439.861 6.39389 439.905 5.13028C439.926 4.01082 439.397 2.97264 438.756 2.10774ZM438.093 6.57331C437.682 7.69124 437.549 7.81545 436.852 8.40585C436.41 8.71409 436.468 8.66041 436.248 8.76469C435.953 8.85364 436.085 8.8613 435.595 8.88584C435.043 8.81223 435.219 8.8245 434.871 8.71409C434.57 8.60674 434.282 8.46412 434.011 8.29391C433.651 8.06388 433.305 7.80778 432.932 7.60076C432.613 7.41981 432.268 7.30173 431.923 7.18825C432.186 6.87848 432.411 6.53957 432.61 6.18073C432.892 5.71761 433.158 5.24376 433.381 4.7469C433.615 4.25311 434.065 3.5753 434.763 2.78862C435.058 2.41291 436.032 2.0878 436.711 2.43437C437.346 2.6552 438.162 4.06296 438.289 4.52915C438.474 5.36337 438.251 6.01358 438.095 6.57484L438.093 6.57331Z" fill="white"/>
</g>
<defs>
<clipPath id="clip0_110_142">
<rect width="460" height="10" fill="white" transform="translate(0.543701 0.540497)"/>
</clipPath>
</defs>
</svg>
