<svg aria-hidden="true" style="position: absolute; width: 0; height: 0; overflow: hidden;" version="1.1" xmlns="http://www.w3.org/2000/svg" xmlns:xlink="http://www.w3.org/1999/xlink">
<defs>
<symbol id="logo" viewBox="0 0 88 32">
<path d="M63.080 21.702c-1.168 0.688-1.728 0.048-1.2-1.168 1.056-2.416 2.8-5.456 4.592-7.744 0.272-0.32 0.624-0.24 1.024 0.24 0.304 0.416 0.192 0.512-0.192 0.976-0.592 0.704-1.2 1.52-1.968 2.72-0.608 0.96-1.824 2.816-2.128 3.76 0.848-0.416 1.44-0.528 1.84-0.56 1.008-0.080 1.984-0.032 2.688 0.688 0.64 0.64-0.512 1.216-1.328 0.72-0.208-0.128-0.496-0.288-1.344-0.24-0.416 0.032-1.056 0.080-1.984 0.608zM68.664 18.918c0.32-0.608 0.88-1.2 1.552-1.632 0.656-0.384 1.36-0.496 2-0.32 0.976 0.288 1.312 1.504 0.736 2.688-0.288 0.576-0.72 1.152-1.248 1.536-0.944 0.672-2.032 0.896-2.8 0.416-0.672-0.448-0.784-1.632-0.24-2.688zM69.848 20.63c0.56 0.288 1.504-0.368 1.904-1.28 0.208-0.464 0.352-1.2-0.224-1.328-0.592-0.144-1.392 0.368-1.776 1.392-0.112 0.288-0.288 1.008 0.096 1.216zM78.243 13.926l-0.496 0.592c-0.304 0.384-0.608 0.768-0.88 1.152 0.24-0.032 0.544-0.064 1.008-0.096 0.24-0.032 0.416 0.096 0.208 0.576-0.064 0.144-0.32 0.592-0.88 0.56-0.56 0-0.816 0-1.040 0.016-0.672 1.040-1.104 1.92-1.232 2.24-0.352 0.88-0.544 1.328-0.192 1.616 0.464 0.384 2.080-0.864 2.784-1.616 0.448-0.336 0.752 0.272 0.224 0.88-0.144 0.16-0.4 0.496-0.784 0.8-1.904 1.504-3.040 1.408-3.504 0.64-0.688-1.152 0.288-2.768 1.248-4.432-0.064 0-0.16 0.016-0.256 0.032-0.24 0.032-0.384-0.288-0.32-0.56 0.048-0.192 0.128-0.368 0.304-0.4l0.896-0.144c0.816-1.328 1.904-2.752 2.4-2.704 0.272 0.048 0.928 0.352 0.512 0.848zM82.126 20.214c0.576-0.4 0.976 0.176 0.512 0.64l-0.16 0.176c-0.624 0.576-1.28 0.832-1.84 0.784-0.496-0.048-0.816-0.4-0.88-0.896-0.512 0.64-1.312 0.896-1.872 0.912-0.272 0-0.592-0.048-0.944-0.32-0.576-0.448-0.464-1.296-0.304-1.728 0.192-0.544 1.008-2.128 1.264-2.608 0.128-0.272 0.448-0.352 0.896 0 0.496 0.384 0.208 0.768-0.112 1.232-0.736 1.072-0.96 1.84-0.752 2.144 0.224 0.352 0.944-0.064 1.36-0.448 0.608-0.56 1.056-1.648 1.296-2.128 0.192-0.448 0.16-0.752 0.368-0.816 0.512-0.208 1.248 0.624 1.040 0.944 0.016 0.048-0.704 1.088-0.992 1.984-0.192 0.592 0.288 0.608 0.608 0.448 0.080-0.032 0.352-0.192 0.512-0.32zM86.861 17.542c0.208 0.368 0.192 0.832-0.048 1.072-0.272 0.256-0.592 0.352-0.864 0.336-0.32-0.016-0.576-0.16-0.592-0.4-0.016-0.256 0.24-0.368 0.576-0.432 0.192-0.032 0.048-0.304-0.272-0.352-0.368-0.048-0.576 0.016-0.672 0.064-0.4 0.192-0.48 0.512-0.432 0.704 0.032 0.112 0.080 0.304 0.512 0.624 0.656 0.48 0.96 0.784 1.056 1.072 0.224 0.704-0.496 1.504-1.728 1.6-0.848 0.064-1.984-0.256-2.256-1.28-0.128-0.464 0-0.848 0.256-1.104 0.176-0.176 0.368-0.224 0.496-0.224 0.224 0 0.4 0.16 0.416 0.4 0.016 0.080 0 0.192-0.016 0.256-0.336 0.544 0.336 0.944 0.944 0.864 0.336-0.048 0.528-0.176 0.48-0.448-0.016-0.112-0.048-0.224-0.432-0.496-0.48-0.336-0.96-0.752-1.056-1.152-0.144-0.832 0.672-1.488 1.232-1.68 1.184-0.336 2.048 0.032 2.4 0.576z"></path>
<path d="M0.154 20.086c-0.048-0.432 0.16-0.688 0.608-0.768 0.416-0.016 0.64 0.16 0.672 0.512 0.064 1.152 2.192 1.36 3.584 0.704 1.072-0.56 1.76-1.28 1.808-2.32 0-0.48-0.144-0.736-0.448-0.864 0.032 0.016-0.592-0.208-0.704-0.256-0.272-0.112-0.352-0.496-0.016-0.656l0.144-0.048c1.568-0.528 2.192-1.232 2.192-1.872 0.016-0.24-0.032-0.816-0.928-1.008-0.080 0-0.256 0-0.352 0.144-0.24 0.4-0.464 0.752-0.704 1.104-0.432 0.672-0.848 1.376-1.408 2.368-0.768 1.296-0.976 1.744-1.152 2.112-0.096 0.192-0.144 0.32-0.24 0.464-0.24 0.368-1.456-0.224-1.184-0.768 0.192-0.336 0.288-0.416 0.448-0.656 0.192-0.32 0.48-0.752 0.944-1.52 0.688-1.072 1.568-2.576 1.568-2.608 0.208-0.368 0.080-0.384-0.144-0.304-0.528 0.208-0.736 0.368-1.024 0.608-0.080 0.096-0.208 0.208-0.352 0.336-0.48 0.336-1.040-0.416-0.32-1.072 0.784-0.704 1.536-1.040 2.784-1.184 1.888-0.224 3.312 0.512 3.232 2.064-0.032 0.624-0.576 1.408-1.312 1.856-0.24 0.144-0.304 0.192-0.4 0.24 0.352 0.16 0.736 0.448 0.768 1.296 0.048 1.44-0.944 2.8-2.672 3.6-2.016 0.944-5.296 0.432-5.392-1.504zM13.128 18.71c0.448-0.336 1.056-0.304 0.592 0.4-0.176 0.272-0.704 0.96-1.072 1.312-1.808 1.728-3.44 1.712-4.048 0.832-0.688-1.008 0.16-2.896 1.216-4.704 0.864-1.472 2.8-4.192 3.744-4.064 0.88 0.144 1.536 2.64 0.688 3.264-0.832 0.624-3.984 2.656-4.208 3.2-0.448 0.8-0.512 1.312-0.208 1.552 0.416 0.336 1.504-0.176 2.128-0.656 0.464-0.352 0.864-0.768 1.168-1.136zM13.416 13.782c-1.296 1.216-2.592 3.296-2.592 3.376 0 0.096 2.592-1.696 2.72-2.080 0.192-0.528-0.032-0.928-0.128-1.296zM17.212 20.326c0.896-0.592 0.928 0.464 0.208 0.944-0.352 0.256-0.576 0.384-0.944 0.496-0.448 0.128-0.896 0.048-1.168-0.144-0.176-0.128-0.272-0.32-0.288-0.464-0.256 0.336-0.896 0.832-1.824 0.656-1.168-0.224-1.136-1.648-0.88-2.32 0.736-1.888 2.080-2.4 2.56-2.528 0.864-0.224 1.52 0.096 1.68 0.24 0.592 0.528 0.096 1.52-0.576 1.184-0.4-0.208-0.432-0.576-1.2-0.24-0.256 0.112-0.944 0.656-1.168 1.344-0.128 0.384-0.272 1.072 0.24 1.216 0.272 0.080 0.688 0 1.312-0.752 0.304-0.368 0.4-0.864 0.496-0.992 0.368-0.592 1.44 0.016 1.248 0.4-0.016 0.048-0.144 0.192-0.368 0.528-0.208 0.288-0.32 0.704-0.128 0.768 0.144 0.048 0.48-0.128 0.8-0.336zM21.942 17.478c0.272 0.848-0.848 1.52-0.848 0.944-0.032-0.32-0.224-0.368-0.528-0.368-0.56 0-1.12 0.432-1.488 1.056-0.352 0.592-0.368 1.184-0.032 1.472 0.24 0.208 1.040 0.272 1.712-0.080 0.704-0.368 1.056-0.8 1.216-0.832 0.24-0.048 0.56 0.32 0.464 0.56s-0.928 0.976-1.68 1.312c-0.848 0.384-2.176 0.48-2.72 0.032-0.56-0.448-0.864-1.248-0.128-2.688 1.232-2.064 2.912-2.128 3.488-1.92 0.32 0.112 0.464 0.288 0.544 0.512zM21.558 21.478c-0.336-0.752 0.704-3.168 1.76-4.976 0.864-1.472 2.88-4.16 3.712-4.032 0.88 0.144 1.472 2.608 0.624 3.232-0.912 0.64-1.664 1.152-2.272 1.568 0.496-0.208 1.056-0.336 1.472 0.112 0.448 0.48 0.24 1.184 0.032 1.504-0.416 0.64-1.52 1.2-2.224 1.104-0.192 0.544 0 0.848 0.624 0.8 0.576-0.048 1.424-0.688 2-1.28 0.224-0.24 0.976 0.128 0.48 0.656-0.176 0.192-0.72 0.72-1.184 1.072-0.432 0.336-1.6 0.928-2.544 0.464-0.656-0.32-0.704-1.088-0.496-1.728 0.272-0.72 2.592-0.784 2.256-1.696-0.304-0.848-1.776 0.016-2.64 1.264-0.304 0.736-0.576 1.648-0.672 2.144-0.288 0.416-0.832-0.032-0.928-0.208zM24.23 17.11c0 0.096 2.592-1.696 2.72-2.080 0.192-0.528-0.032-0.928-0.128-1.296-1.296 1.216-2.592 3.296-2.592 3.376z"></path>
<path d="M45.060 8.175c-0.501-0.030-1.034-0.105-1.599-0.224-0.922-0.196-1.624-0.556-1.547-1.639 0.151-2.108 1.119-3.907 2.605-5.341 0.34-0.329 0.83-0.184 1.155 0.084 1.33 1.097 2.187 2.396 2.572 3.898 0.187 0.727-0.526 1.196-1.148 0.828-0.123-0.073-0.229-0.293-0.267-0.428-0.293-1.070-0.861-2.001-1.704-2.793-0.004-0.004-0.009-0.007-0.014-0.009s-0.011-0.003-0.017-0.003c-0.005 0-0.011 0.002-0.016 0.004s-0.010 0.006-0.013 0.010c-0.922 1.047-1.562 2.302-1.659 3.681-0.011 0.147 0.057 0.231 0.203 0.251 0.945 0.131 1.877 0.257 2.798 0.378 0.6 0.080 1.459 0.378 1.517 1.050 0.084 0.973-0.745 1.332-1.543 1.549-0.449 0.123-0.861 0.211-1.234 0.264-0.106 0.015-0.106 0.032 0 0.049 0.331 0.052 0.651 0.119 0.96 0.201 0.853 0.227 0.937 1.035 0.505 1.678-0.235 0.348-0.541 0.705-0.916 1.069-0.145 0.141-0.285 0.25-0.418 0.326-0.389 0.223-0.906 0.044-1.053-0.389-0.212-0.619 0.365-0.945 0.728-1.326 0.047-0.048 0.037-0.077-0.030-0.086-0.555-0.070-1.144-0.17-1.646-0.452-0.679-0.382-0.81-1.275-0.224-1.806 0.473-0.43 1.339-0.584 2.011-0.728 0.234-0.050 0.232-0.082-0.007-0.096z"></path>
<path d="M40.811 11.479c0.542-0.499 1.658-1.21 2.177-0.2 0.312 0.61 0.298 1.532 0.243 2.215-0.074 0.937-1.409 0.998-1.465 0.039-0.017-0.292-0.012-0.59 0.016-0.896 0.005-0.060-0.015-0.069-0.059-0.029-0.366 0.341-0.787 0.612-1.262 0.812-0.465 0.197-0.883 0.169-1.253-0.085-0.709-0.486-0.447-1.335-0.094-1.984 0.226-0.418 0.459-0.77 0.698-1.057 0.001-0.002 0.001-0.003 0-0.004l-0.020-0.025c-0.008-0.011-0.017-0.011-0.027-0.002-0.711 0.612-1.33 1.057-1.857 1.337-0.596 0.316-1.228 0.344-1.726-0.172-1.449-1.503-2.078-3.615-2.066-5.687 0.003-0.453 0.225-0.713 0.667-0.778 1.629-0.242 3.403 0.051 4.847 0.922 0.168 0.102 0.273 0.247 0.313 0.435 0.151 0.697-0.532 1.165-1.138 0.799-0.84-0.507-1.828-0.757-2.964-0.752-0.053 0.001-0.105-0.004-0.157-0.015-0.044-0.009-0.064 0.009-0.061 0.053 0.078 1.149 0.376 2.16 0.891 3.031 0.182 0.31 0.394 0.586 0.633 0.827 0.032 0.032 0.068 0.037 0.108 0.013 0.355-0.212 0.653-0.417 0.891-0.616 0.69-0.575 1.268-1.019 1.733-1.332 0.403-0.271 0.972-0.455 1.491-0.206 0.469 0.225 0.594 0.88 0.467 1.338-0.209 0.749-0.648 1.344-1.056 1.993-0.054 0.086-0.044 0.094 0.031 0.025z"></path>
<path d="M49.404 11.688c0.492 0.555 1.212 1.662 0.194 2.179-0.611 0.31-1.487 0.29-2.177 0.247-1.041-0.063-1.046-1.524 0.114-1.482 0.23 0.008 0.461 0.015 0.694 0.021 0.055 0.002 0.064-0.019 0.028-0.061-0.331-0.377-0.59-0.78-0.779-1.207-0.204-0.465-0.193-0.882 0.035-1.251 0.718-1.16 2.38 0.019 3.080 0.538 0.003 0.002 0.008 0.004 0.012 0.003s0.008-0.002 0.011-0.005c0.003-0.003 0.005-0.007 0.005-0.011s-0.002-0.008-0.005-0.011c-0.321-0.393-0.617-0.772-0.889-1.137-0.27-0.364-0.47-0.734-0.6-1.111-0.175-0.507-0.052-0.989 0.343-1.362 1.539-1.451 3.638-2.064 5.729-2.042 0.481 0.005 0.702 0.371 0.748 0.799 0.176 1.639-0.105 3.559-1.080 4.878-0.022 0.029-0.050 0.053-0.083 0.069-0.496 0.233-1.038 0.058-1.141-0.522-0.031-0.171 0.002-0.336 0.097-0.493 0.545-0.897 0.802-1.955 0.771-3.175-0.001-0.043-0.023-0.062-0.066-0.057-1.474 0.168-2.703 0.52-3.823 1.51-0.044 0.038-0.050 0.082-0.020 0.131 0.152 0.246 0.304 0.467 0.456 0.663 0.398 0.515 0.796 1.027 1.195 1.537s0.809 1.2 0.535 1.853c-0.215 0.513-0.884 0.668-1.375 0.525-0.733-0.215-1.34-0.635-1.983-1.055-0.081-0.053-0.090-0.044-0.025 0.029z"></path>
<path d="M37.371 15.75c-0.030-0.123-0.050-0.121-0.061 0.005-0.056 0.678-0.159 1.33-0.309 1.956-0.191 0.801-0.654 1.311-1.55 1.253-2.098-0.138-3.851-1.092-5.33-2.568-0.407-0.409-0.172-0.935 0.142-1.302 1.087-1.271 2.364-2.095 3.833-2.47 0.348-0.090 0.772 0.080 0.889 0.439 0.137 0.424-0.032 0.85-0.479 0.971-1.057 0.285-1.995 0.852-2.812 1.701-0.034 0.035-0.032 0.068 0.005 0.099 1.102 0.925 2.329 1.558 3.763 1.642 0.040 0.002 0.066-0.015 0.080-0.052 0.065-0.171 0.11-0.353 0.136-0.544 0.090-0.669 0.172-1.316 0.242-1.941 0.070-0.617 0.209-1.489 0.755-1.853 0.474-0.318 1.162-0.102 1.463 0.352 0.416 0.629 0.618 1.554 0.706 2.262 0.018 0.141 0.038 0.142 0.062 0.001 0.053-0.307 0.115-0.605 0.187-0.895 0.215-0.87 1.015-0.99 1.679-0.552 0.438 0.289 0.869 0.679 1.294 1.17 0.293 0.337 0.287 0.944-0.151 1.17-0.684 0.35-1.041-0.274-1.455-0.676-0.048-0.047-0.076-0.037-0.084 0.029-0.072 0.667-0.231 1.63-0.8 2.035-0.509 0.364-1.182 0.251-1.538-0.252-0.389-0.55-0.51-1.319-0.668-1.979z"></path>
<path d="M52.685 16.090c0.041-0.557 0.12-1.136 0.238-1.737 0.195-0.989 0.601-1.647 1.726-1.554 2.081 0.173 3.811 1.125 5.261 2.595 0.304 0.308 0.209 0.76-0.040 1.081-1.050 1.358-2.38 2.246-3.99 2.665-0.175 0.046-0.361 0.017-0.557-0.086-0.154-0.081-0.258-0.207-0.312-0.378-0.124-0.399 0.041-0.841 0.476-0.953 1.046-0.27 1.985-0.835 2.817-1.695 0.035-0.036 0.033-0.069-0.005-0.101-1.036-0.897-2.325-1.576-3.7-1.638-0.115-0.006-0.182 0.049-0.2 0.162-0.129 0.796-0.24 1.618-0.334 2.465-0.035 0.312-0.1 0.627-0.195 0.944-0.245 0.815-0.937 1.265-1.724 0.738-0.624-0.418-0.915-1.864-0.988-2.536-0.017-0.153-0.039-0.154-0.065-0.002-0.050 0.286-0.109 0.571-0.176 0.856-0.211 0.882-0.992 1.038-1.672 0.595-0.436-0.284-0.87-0.674-1.302-1.17-0.338-0.389-0.28-1.027 0.234-1.227 0.626-0.244 0.982 0.347 1.36 0.721 0.048 0.048 0.075 0.038 0.084-0.029 0.078-0.615 0.219-1.613 0.767-2.006 0.697-0.503 1.463-0.176 1.773 0.569 0.224 0.535 0.376 1.114 0.456 1.738 0.001 0.005 0.004 0.007 0.008 0.006l0.034-0.001c0.016-0.001 0.025-0.009 0.025-0.025z"></path>
<path d="M48.27 19.156c0.397-0.364 0.833-0.642 1.308-0.833 0.445-0.179 0.845-0.149 1.199 0.088 0.67 0.451 0.504 1.253 0.175 1.873-0.236 0.443-0.471 0.82-0.707 1.131-0.076 0.1-0.065 0.111 0.034 0.032 0.329-0.265 0.685-0.54 1.068-0.825 0.733-0.544 1.726-1.088 2.496-0.268 0.748 0.798 1.284 1.716 1.607 2.756 0.296 0.954 0.441 1.941 0.435 2.959-0.002 0.485-0.379 0.715-0.813 0.76-1.66 0.17-3.411-0.111-4.779-1.017-0.103-0.069-0.174-0.164-0.212-0.286-0.213-0.686 0.441-1.291 1.085-0.901 0.895 0.541 1.948 0.796 3.16 0.765 0.044-0.001 0.064-0.023 0.058-0.068-0.030-0.244-0.063-0.493-0.099-0.746-0.17-1.166-0.636-2.189-1.4-3.068-0.020-0.024-0.049-0.039-0.080-0.043s-0.062 0.004-0.088 0.021c-0.631 0.432-1.255 0.904-1.871 1.416-0.504 0.419-0.968 0.691-1.392 0.817-0.456 0.136-1.023-0.045-1.225-0.522-0.407-0.964 0.508-2.161 1.014-2.916 0.008-0.012 0.007-0.023-0.005-0.033l-0.024-0.019c-0.003-0.003-0.007-0.003-0.010 0-0.311 0.35-0.68 0.588-1.105 0.715-0.658 0.196-1.115-0.273-1.239-0.875-0.112-0.541-0.143-1.14-0.093-1.795 0.077-1.013 1.509-1 1.481 0.103-0.007 0.254-0.015 0.506-0.026 0.756-0.002 0.047 0.014 0.055 0.048 0.023z"></path>
<path d="M40.599 20.063c-0.24-0.265-0.43-0.538-0.57-0.818-0.406-0.816 0.101-1.395 0.903-1.535 0.505-0.087 1.050-0.11 1.635-0.068 1.010 0.073 1.054 1.434 0.051 1.474-0.292 0.011-0.584 0.004-0.877-0.021-0.050-0.004-0.058 0.012-0.024 0.049 0.331 0.354 0.6 0.762 0.805 1.225 0.362 0.819-0.010 1.782-1.007 1.747-0.65-0.024-1.513-0.593-2.035-0.983-0.12-0.090-0.133-0.077-0.039 0.040 0.529 0.655 1.084 1.309 1.398 2.074 0.23 0.56 0.109 1.090-0.348 1.508-0.362 0.33-0.717 0.601-1.064 0.815-1.266 0.776-2.773 1.175-4.524 1.195-0.485 0.006-0.759-0.221-0.823-0.681-0.229-1.656 0.054-3.401 0.916-4.821 0.099-0.163 0.22-0.264 0.362-0.303 0.755-0.205 1.266 0.469 0.874 1.125-0.53 0.89-0.778 1.931-0.742 3.124 0.002 0.042 0.023 0.060 0.064 0.055 0.316-0.039 0.626-0.084 0.929-0.137 0.992-0.172 1.87-0.558 2.636-1.156 0.095-0.074 0.183-0.154 0.263-0.24 0.032-0.034 0.035-0.070 0.011-0.109-0.193-0.32-0.407-0.625-0.642-0.915-0.53-0.651-0.958-1.213-1.284-1.686-0.517-0.752-0.544-1.891 0.612-2.011 0.835-0.088 1.822 0.652 2.49 1.087 0.092 0.060 0.101 0.049 0.028-0.033z"></path>
<path d="M44.983 23.585c0.822 0.057 1.534 0.187 2.136 0.388 0.787 0.262 1.021 0.805 0.959 1.589-0.161 2.028-1.119 3.753-2.569 5.201-0.182 0.182-0.39 0.247-0.625 0.198-0.223-0.047-0.424-0.145-0.604-0.294-1.291-1.073-2.132-2.354-2.525-3.843-0.099-0.376 0.050-0.813 0.447-0.936 0.384-0.119 0.818 0.027 0.937 0.446 0.318 1.127 0.895 2.082 1.733 2.864 0.005 0.004 0.010 0.007 0.016 0.009s0.012 0.003 0.018 0.003c0.006-0 0.012-0.002 0.017-0.005s0.011-0.006 0.014-0.011c0.926-1.075 1.582-2.346 1.657-3.776 0.002-0.040-0.015-0.067-0.051-0.082-0.176-0.074-0.369-0.123-0.58-0.147-1.121-0.123-2.002-0.243-2.642-0.359-0.87-0.158-1.646-0.802-1.080-1.756 0.395-0.665 1.842-0.947 2.556-1.042 0.173-0.023 0.173-0.047 0-0.070-0.883-0.121-1.972-0.303-1.59-1.539 0.062-0.199 0.233-0.459 0.513-0.782 0.306-0.352 0.6-0.642 0.883-0.87 0.386-0.311 1.013-0.173 1.175 0.336 0.194 0.612-0.378 0.931-0.739 1.311-0.044 0.047-0.035 0.074 0.029 0.082 0.62 0.076 1.706 0.232 2.057 0.834 0.316 0.541 0.252 1.018-0.19 1.431s-1.339 0.578-1.959 0.715c-0.237 0.053-0.235 0.087 0.007 0.104z"></path>
</symbol>
</defs>
</svg>
